<svg width="277" height="81" viewBox="0 0 277 81" fill="none" xmlns="http://www.w3.org/2000/svg">
<g filter="url(#filter0_d)">
<path d="M5.696 59.832C4.352 59.832 3.32 59.256 2.6 58.104C1.88 56.952 1.808 55.728 2.384 54.432L22.616 6.12C23.336 4.44 24.512 3.6 26.144 3.6C27.872 3.6 29.048 4.44 29.672 6.12L49.976 54.576C50.504 55.92 50.408 57.144 49.688 58.248C49.016 59.304 47.984 59.832 46.592 59.832C45.872 59.832 45.176 59.64 44.504 59.256C43.88 58.824 43.424 58.248 43.136 57.528L39.104 47.448H13.256L9.152 57.528C8.816 58.296 8.312 58.872 7.64 59.256C7.016 59.64 6.368 59.832 5.696 59.832ZM15.776 41.256H36.584L26.288 15.624L15.776 41.256Z" fill="white"/>
<path d="M61.505 76.68C60.449 76.68 59.561 76.32 58.841 75.6C58.169 74.928 57.833 74.064 57.833 73.008V40.176C57.881 36.384 58.769 32.976 60.497 29.952C62.225 26.928 64.577 24.552 67.553 22.824C70.529 21.048 73.889 20.16 77.633 20.16C81.425 20.16 84.809 21.048 87.785 22.824C90.761 24.552 93.113 26.928 94.841 29.952C96.617 32.976 97.505 36.384 97.505 40.176C97.505 43.968 96.689 47.376 95.057 50.4C93.473 53.376 91.289 55.752 88.505 57.528C85.721 59.256 82.577 60.12 79.073 60.12C76.241 60.12 73.625 59.544 71.225 58.392C68.873 57.192 66.857 55.584 65.177 53.568V73.008C65.177 74.064 64.841 74.928 64.169 75.6C63.497 76.32 62.609 76.68 61.505 76.68ZM77.633 53.64C80.081 53.64 82.265 53.064 84.185 51.912C86.105 50.712 87.617 49.104 88.721 47.088C89.873 45.024 90.449 42.72 90.449 40.176C90.449 37.584 89.873 35.28 88.721 33.264C87.617 31.2 86.105 29.592 84.185 28.44C82.265 27.24 80.081 26.64 77.633 26.64C75.233 26.64 73.049 27.24 71.081 28.44C69.161 29.592 67.649 31.2 66.545 33.264C65.441 35.28 64.889 37.584 64.889 40.176C64.889 42.72 65.441 45.024 66.545 47.088C67.649 49.104 69.161 50.712 71.081 51.912C73.049 53.064 75.233 53.64 77.633 53.64Z" fill="white"/>
<path d="M112.13 76.68C111.074 76.68 110.186 76.32 109.466 75.6C108.794 74.928 108.458 74.064 108.458 73.008V40.176C108.506 36.384 109.394 32.976 111.122 29.952C112.85 26.928 115.202 24.552 118.178 22.824C121.154 21.048 124.514 20.16 128.258 20.16C132.05 20.16 135.434 21.048 138.41 22.824C141.386 24.552 143.738 26.928 145.466 29.952C147.242 32.976 148.13 36.384 148.13 40.176C148.13 43.968 147.314 47.376 145.682 50.4C144.098 53.376 141.914 55.752 139.13 57.528C136.346 59.256 133.202 60.12 129.698 60.12C126.866 60.12 124.25 59.544 121.85 58.392C119.498 57.192 117.482 55.584 115.802 53.568V73.008C115.802 74.064 115.466 74.928 114.794 75.6C114.122 76.32 113.234 76.68 112.13 76.68ZM128.258 53.64C130.706 53.64 132.89 53.064 134.81 51.912C136.73 50.712 138.242 49.104 139.346 47.088C140.498 45.024 141.074 42.72 141.074 40.176C141.074 37.584 140.498 35.28 139.346 33.264C138.242 31.2 136.73 29.592 134.81 28.44C132.89 27.24 130.706 26.64 128.258 26.64C125.858 26.64 123.674 27.24 121.706 28.44C119.786 29.592 118.274 31.2 117.17 33.264C116.066 35.28 115.514 37.584 115.514 40.176C115.514 42.72 116.066 45.024 117.17 47.088C118.274 49.104 119.786 50.712 121.706 51.912C123.674 53.064 125.858 53.64 128.258 53.64Z" fill="white"/>
<path d="M177.587 60.12C173.603 60.12 170.051 59.28 166.931 57.6C163.859 55.872 161.435 53.52 159.659 50.544C157.931 47.52 157.067 44.064 157.067 40.176C157.067 36.24 157.883 32.784 159.515 29.808C161.195 26.784 163.499 24.432 166.427 22.752C169.355 21.024 172.715 20.16 176.507 20.16C180.251 20.16 183.467 21 186.155 22.68C188.843 24.312 190.883 26.592 192.275 29.52C193.715 32.4 194.435 35.736 194.435 39.528C194.435 40.44 194.123 41.208 193.499 41.832C192.875 42.408 192.083 42.696 191.123 42.696H163.763C164.291 46.008 165.803 48.72 168.299 50.832C170.843 52.896 173.939 53.928 177.587 53.928C179.075 53.928 180.587 53.664 182.123 53.136C183.707 52.56 184.979 51.912 185.939 51.192C186.659 50.664 187.427 50.4 188.243 50.4C189.107 50.352 189.851 50.592 190.475 51.12C191.291 51.84 191.723 52.632 191.771 53.496C191.819 54.36 191.435 55.104 190.619 55.728C188.987 57.024 186.947 58.08 184.499 58.896C182.099 59.712 179.795 60.12 177.587 60.12ZM176.507 26.352C172.955 26.352 170.099 27.336 167.939 29.304C165.779 31.272 164.411 33.816 163.835 36.936H187.811C187.379 33.864 186.203 31.344 184.283 29.376C182.363 27.36 179.771 26.352 176.507 26.352ZM176.075 14.256C175.019 14.256 174.131 13.92 173.411 13.248C172.739 12.528 172.403 11.64 172.403 10.584C172.403 9.576 172.691 8.76 173.267 8.136L180.323 1.08C181.043 0.36 181.907 0 182.915 0C184.019 0 184.907 0.36 185.579 1.08C186.251 1.8 186.587 2.688 186.587 3.744C186.587 4.8 186.251 5.64 185.579 6.264L178.595 13.248C177.923 13.92 177.083 14.256 176.075 14.256Z" fill="white"/>
<path d="M218.13 59.832C215.73 59.832 213.57 59.232 211.65 58.032C209.73 56.784 208.218 55.104 207.114 52.992C206.01 50.88 205.458 48.504 205.458 45.864V28.08H202.146C201.138 28.08 200.322 27.792 199.698 27.216C199.074 26.64 198.762 25.92 198.762 25.056C198.762 24.096 199.074 23.328 199.698 22.752C200.322 22.176 201.138 21.888 202.146 21.888H205.458V11.52C205.458 10.464 205.794 9.6 206.466 8.928C207.138 8.256 208.002 7.92 209.058 7.92C210.114 7.92 210.978 8.256 211.65 8.928C212.322 9.6 212.658 10.464 212.658 11.52V21.888H218.778C219.786 21.888 220.602 22.176 221.226 22.752C221.85 23.328 222.162 24.096 222.162 25.056C222.162 25.92 221.85 26.64 221.226 27.216C220.602 27.792 219.786 28.08 218.778 28.08H212.658V45.864C212.658 47.784 213.186 49.392 214.242 50.688C215.298 51.984 216.594 52.632 218.13 52.632H220.578C221.442 52.632 222.162 52.968 222.738 53.64C223.362 54.312 223.674 55.176 223.674 56.232C223.674 57.288 223.266 58.152 222.45 58.824C221.682 59.496 220.674 59.832 219.426 59.832H218.13Z" fill="white"/>
<path d="M237.092 59.832C236.036 59.832 235.148 59.496 234.428 58.824C233.756 58.104 233.42 57.216 233.42 56.16V24.12C233.42 23.016 233.756 22.128 234.428 21.456C235.148 20.784 236.036 20.448 237.092 20.448C238.196 20.448 239.084 20.784 239.756 21.456C240.428 22.128 240.764 23.016 240.764 24.12V56.16C240.764 57.216 240.428 58.104 239.756 58.824C239.084 59.496 238.196 59.832 237.092 59.832ZM237.092 14.04C235.796 14.04 234.668 13.584 233.708 12.672C232.796 11.712 232.34 10.584 232.34 9.288C232.34 7.992 232.796 6.888 233.708 5.976C234.668 5.016 235.796 4.536 237.092 4.536C238.388 4.536 239.492 5.016 240.404 5.976C241.364 6.888 241.844 7.992 241.844 9.288C241.844 10.584 241.364 11.712 240.404 12.672C239.492 13.584 238.388 14.04 237.092 14.04Z" fill="white"/>
<path d="M268.755 59.832C266.355 59.832 264.195 59.232 262.275 58.032C260.355 56.784 258.843 55.104 257.739 52.992C256.635 50.88 256.083 48.504 256.083 45.864V28.08H252.771C251.763 28.08 250.947 27.792 250.323 27.216C249.699 26.64 249.387 25.92 249.387 25.056C249.387 24.096 249.699 23.328 250.323 22.752C250.947 22.176 251.763 21.888 252.771 21.888H256.083V11.52C256.083 10.464 256.419 9.6 257.091 8.928C257.763 8.256 258.627 7.92 259.683 7.92C260.739 7.92 261.603 8.256 262.275 8.928C262.947 9.6 263.283 10.464 263.283 11.52V21.888H269.403C270.411 21.888 271.227 22.176 271.851 22.752C272.475 23.328 272.787 24.096 272.787 25.056C272.787 25.92 272.475 26.64 271.851 27.216C271.227 27.792 270.411 28.08 269.403 28.08H263.283V45.864C263.283 47.784 263.811 49.392 264.867 50.688C265.923 51.984 267.219 52.632 268.755 52.632H271.203C272.067 52.632 272.787 52.968 273.363 53.64C273.987 54.312 274.299 55.176 274.299 56.232C274.299 57.288 273.891 58.152 273.075 58.824C272.307 59.496 271.299 59.832 270.051 59.832H268.755Z" fill="white"/>
</g>
<defs>
<filter id="filter0_d" x="0" y="0" width="276.299" height="80.68" filterUnits="userSpaceOnUse" color-interpolation-filters="sRGB">
<feFlood flood-opacity="0" result="BackgroundImageFix"/>
<feColorMatrix in="SourceAlpha" type="matrix" values="0 0 0 0 0 0 0 0 0 0 0 0 0 0 0 0 0 0 127 0" result="hardAlpha"/>
<feOffset dy="2"/>
<feGaussianBlur stdDeviation="1"/>
<feComposite in2="hardAlpha" operator="out"/>
<feColorMatrix type="matrix" values="0 0 0 0 0 0 0 0 0 0 0 0 0 0 0 0 0 0 0.18 0"/>
<feBlend mode="normal" in2="BackgroundImageFix" result="effect1_dropShadow"/>
<feBlend mode="normal" in="SourceGraphic" in2="effect1_dropShadow" result="shape"/>
</filter>
</defs>
</svg>
