<svg width="355" height="63" viewBox="0 0 355 63" fill="none" xmlns="http://www.w3.org/2000/svg">
<path d="M4.10667 62.48C2.61333 62.48 1.46667 61.84 0.666667 60.56C-0.133333 59.28 -0.213333 57.92 0.426667 56.48L22.9067 2.8C23.7067 0.933332 25.0133 0 26.8267 0C28.7467 0 30.0533 0.933332 30.7467 2.8L53.3067 56.64C53.8933 58.1333 53.7867 59.4933 52.9867 60.72C52.24 61.8933 51.0933 62.48 49.5467 62.48C48.7467 62.48 47.9733 62.2667 47.2267 61.84C46.5333 61.36 46.0267 60.72 45.7067 59.92L41.2267 48.72L26.9867 13.36L12.5067 48.72L7.94667 59.92C7.57333 60.7733 7.01333 61.4133 6.26667 61.84C5.57333 62.2667 4.85333 62.48 4.10667 62.48Z" fill="white"/>
<path d="M72.4367 62.48C70.09 62.48 68.01 61.84 66.1967 60.56C64.3833 59.28 62.97 57.5467 61.9567 55.36C60.9433 53.12 60.4367 50.56 60.4367 47.68V4C60.4367 2.82667 60.81 1.86667 61.5567 1.12C62.3033 0.373333 63.2633 0 64.4367 0C65.61 0 66.57 0.373333 67.3167 1.12C68.0633 1.86667 68.4367 2.82667 68.4367 4V47.68C68.4367 49.6533 68.81 51.28 69.5567 52.56C70.3033 53.84 71.2633 54.48 72.4367 54.48H74.4367C75.5033 54.48 76.3567 54.8533 76.9967 55.6C77.69 56.3467 78.0367 57.3067 78.0367 58.48C78.0367 59.6533 77.53 60.6133 76.5167 61.36C75.5033 62.1067 74.1967 62.48 72.5967 62.48H72.4367Z" fill="white"/>
<path d="M90.901 62.48C89.7277 62.48 88.741 62.1067 87.941 61.36C87.1944 60.56 86.821 59.5733 86.821 58.4V22.8C86.821 21.5733 87.1944 20.5867 87.941 19.84C88.741 19.0933 89.7277 18.72 90.901 18.72C92.1277 18.72 93.1144 19.0933 93.861 19.84C94.6077 20.5867 94.981 21.5733 94.981 22.8V58.4C94.981 59.5733 94.6077 60.56 93.861 61.36C93.1144 62.1067 92.1277 62.48 90.901 62.48ZM90.901 11.6C89.461 11.6 88.2077 11.0933 87.141 10.08C86.1277 9.01333 85.621 7.76 85.621 6.32C85.621 4.88 86.1277 3.65333 87.141 2.64C88.2077 1.57333 89.461 1.04 90.901 1.04C92.341 1.04 93.5677 1.57333 94.581 2.64C95.6477 3.65333 96.181 4.88 96.181 6.32C96.181 7.76 95.6477 9.01333 94.581 10.08C93.5677 11.0933 92.341 11.6 90.901 11.6Z" fill="white"/>
<path d="M114.242 62.56C113.068 62.56 112.082 62.1867 111.282 61.44C110.535 60.64 110.162 59.6533 110.162 58.48V22.88C110.162 21.6533 110.535 20.6667 111.282 19.92C112.082 19.1733 113.068 18.8 114.242 18.8C115.468 18.8 116.455 19.1733 117.202 19.92C117.948 20.6667 118.322 21.6 118.322 22.72C119.708 21.3333 121.362 20.2667 123.282 19.52C125.202 18.72 127.282 18.32 129.522 18.32C135.122 18.32 139.335 20.4267 142.162 24.64C143.708 22.6667 145.682 21.12 148.082 20C150.482 18.88 153.175 18.32 156.162 18.32C160.748 18.32 164.482 19.8133 167.362 22.8C170.242 25.7867 171.682 30.0533 171.682 35.6V58.48C171.682 59.6533 171.308 60.64 170.562 61.44C169.815 62.1867 168.828 62.56 167.602 62.56C166.428 62.56 165.442 62.1867 164.642 61.44C163.895 60.64 163.522 59.6533 163.522 58.48V35.6C163.522 32.24 162.695 29.76 161.042 28.16C159.388 26.5067 157.228 25.68 154.562 25.68C151.788 25.68 149.495 26.64 147.682 28.56C145.922 30.48 145.042 32.9333 145.042 35.92V58.48C145.042 59.6533 144.668 60.64 143.922 61.44C143.175 62.1867 142.188 62.56 140.962 62.56C139.788 62.56 138.802 62.1867 138.002 61.44C137.255 60.64 136.882 59.6533 136.882 58.48V35.6C136.882 32.24 136.055 29.76 134.402 28.16C132.748 26.5067 130.588 25.68 127.922 25.68C125.148 25.68 122.855 26.64 121.042 28.56C119.228 30.48 118.322 32.9333 118.322 35.92V58.48C118.322 59.6533 117.948 60.64 117.202 61.44C116.455 62.1867 115.468 62.56 114.242 62.56Z" fill="white"/>
<path d="M205.8 62.8C201.373 62.8 197.426 61.8667 193.96 60C190.546 58.08 187.853 55.4667 185.88 52.16C183.96 48.8 183 44.96 183 40.64C183 36.2667 183.906 32.4267 185.72 29.12C187.586 25.76 190.146 23.1467 193.4 21.28C196.653 19.36 200.386 18.4 204.6 18.4C208.76 18.4 212.333 19.3333 215.32 21.2C218.306 23.0133 220.573 25.5467 222.12 28.8C223.72 32 224.52 35.7067 224.52 39.92C224.52 40.9333 224.173 41.7867 223.48 42.48C222.786 43.12 221.906 43.44 220.84 43.44H190.44C191.026 47.12 192.706 50.1333 195.48 52.48C198.306 54.7733 201.746 55.92 205.8 55.92C207.453 55.92 209.133 55.6267 210.84 55.04C212.6 54.4 214.013 53.68 215.08 52.88C215.88 52.2933 216.733 52 217.64 52C218.6 51.9467 219.426 52.2133 220.12 52.8C221.026 53.6 221.506 54.48 221.56 55.44C221.613 56.4 221.186 57.2267 220.28 57.92C218.466 59.36 216.2 60.5333 213.48 61.44C210.813 62.3467 208.253 62.8 205.8 62.8ZM204.6 25.28C200.653 25.28 197.48 26.3733 195.08 28.56C192.68 30.7467 191.16 33.5733 190.52 37.04H217.16C216.68 33.6267 215.373 30.8267 213.24 28.64C211.106 26.4 208.226 25.28 204.6 25.28Z" fill="white"/>
<path d="M239.007 62.56C237.834 62.56 236.847 62.1867 236.047 61.44C235.301 60.64 234.927 59.6533 234.927 58.48V22.8C234.927 21.5733 235.301 20.5867 236.047 19.84C236.847 19.0933 237.834 18.72 239.007 18.72C240.234 18.72 241.221 19.0933 241.967 19.84C242.714 20.5867 243.087 21.5733 243.087 22.8V23.68C244.741 22.0267 246.741 20.72 249.087 19.76C251.434 18.8 253.967 18.32 256.687 18.32C260.367 18.32 263.647 19.12 266.527 20.72C269.461 22.2667 271.754 24.56 273.407 27.6C275.114 30.64 275.967 34.3733 275.967 38.8V58.48C275.967 59.6533 275.567 60.64 274.767 61.44C274.021 62.1867 273.061 62.56 271.887 62.56C270.714 62.56 269.727 62.1867 268.927 61.44C268.181 60.64 267.807 59.6533 267.807 58.48V38.8C267.807 34.2667 266.581 30.96 264.127 28.88C261.727 26.7467 258.714 25.68 255.087 25.68C252.847 25.68 250.821 26.1333 249.007 27.04C247.194 27.9467 245.754 29.1733 244.687 30.72C243.621 32.2133 243.087 33.9467 243.087 35.92V58.48C243.087 59.6533 242.714 60.64 241.967 61.44C241.221 62.1867 240.234 62.56 239.007 62.56Z" fill="white"/>
<path d="M305.379 62.48C302.712 62.48 300.312 61.8133 298.179 60.48C296.045 59.0933 294.365 57.2267 293.139 54.88C291.912 52.5333 291.299 49.8933 291.299 46.96V27.2H287.619C286.499 27.2 285.592 26.88 284.899 26.24C284.205 25.6 283.859 24.8 283.859 23.84C283.859 22.7733 284.205 21.92 284.899 21.28C285.592 20.64 286.499 20.32 287.619 20.32H291.299V8.8C291.299 7.62667 291.672 6.66667 292.419 5.92C293.165 5.17333 294.125 4.8 295.299 4.8C296.472 4.8 297.432 5.17333 298.179 5.92C298.925 6.66667 299.299 7.62667 299.299 8.8V20.32H306.099C307.219 20.32 308.125 20.64 308.819 21.28C309.512 21.92 309.859 22.7733 309.859 23.84C309.859 24.8 309.512 25.6 308.819 26.24C308.125 26.88 307.219 27.2 306.099 27.2H299.299V46.96C299.299 49.0933 299.885 50.88 301.059 52.32C302.232 53.76 303.672 54.48 305.379 54.48H308.099C309.059 54.48 309.859 54.8533 310.499 55.6C311.192 56.3467 311.539 57.3067 311.539 58.48C311.539 59.6533 311.085 60.6133 310.179 61.36C309.325 62.1067 308.205 62.48 306.819 62.48H305.379Z" fill="white"/>
<path d="M337.488 62.8C333.755 62.8 330.288 62.24 327.088 61.12C323.941 59.9467 321.488 58.48 319.728 56.72C318.928 55.8667 318.581 54.9067 318.688 53.84C318.848 52.72 319.381 51.8133 320.288 51.12C321.355 50.2667 322.395 49.92 323.408 50.08C324.475 50.1867 325.381 50.64 326.128 51.44C327.035 52.4533 328.475 53.4133 330.448 54.32C332.475 55.1733 334.715 55.6 337.168 55.6C340.261 55.6 342.608 55.0933 344.208 54.08C345.861 53.0667 346.715 51.76 346.768 50.16C346.821 48.56 346.048 47.1733 344.448 46C342.901 44.8267 340.048 43.8667 335.888 43.12C330.501 42.0533 326.581 40.4533 324.128 38.32C321.728 36.1867 320.528 33.5733 320.528 30.48C320.528 27.76 321.328 25.52 322.928 23.76C324.528 21.9467 326.581 20.6133 329.088 19.76C331.595 18.8533 334.208 18.4 336.928 18.4C340.448 18.4 343.568 18.96 346.288 20.08C349.008 21.2 351.168 22.7467 352.768 24.72C353.515 25.5733 353.861 26.48 353.808 27.44C353.755 28.3467 353.301 29.12 352.448 29.76C351.595 30.3467 350.581 30.5333 349.408 30.32C348.235 30.1067 347.248 29.6267 346.448 28.88C345.115 27.6 343.675 26.72 342.128 26.24C340.581 25.76 338.795 25.52 336.768 25.52C334.421 25.52 332.421 25.92 330.768 26.72C329.168 27.52 328.368 28.6933 328.368 30.24C328.368 31.2 328.608 32.08 329.088 32.88C329.621 33.6267 330.635 34.32 332.128 34.96C333.621 35.5467 335.808 36.1333 338.688 36.72C344.715 37.8933 348.875 39.5733 351.168 41.76C353.515 43.8933 354.688 46.5333 354.688 49.68C354.688 52.1333 354.021 54.3467 352.688 56.32C351.408 58.2933 349.488 59.8667 346.928 61.04C344.421 62.2133 341.275 62.8 337.488 62.8Z" fill="white"/>
</svg>
