<svg width="273" height="77" viewBox="0 0 273 77" fill="none" xmlns="http://www.w3.org/2000/svg">
<path d="M3.968 60C2.624 60 1.592 59.424 0.872003 58.272C0.152003 57.12 0.0800032 55.896 0.656003 54.6L20.888 6.28797C21.608 4.60797 22.784 3.76797 24.416 3.76797C26.144 3.76797 27.32 4.60797 27.944 6.28797L48.248 54.744C48.776 56.088 48.68 57.312 47.96 58.416C47.288 59.472 46.256 60 44.864 60C44.144 60 43.448 59.808 42.776 59.424C42.152 58.992 41.696 58.416 41.408 57.696L37.376 47.616H11.528L7.424 57.696C7.088 58.464 6.584 59.04 5.912 59.424C5.288 59.808 4.64 60 3.968 60ZM14.048 41.424H34.856L24.56 15.792L14.048 41.424Z" fill="white"/>
<path d="M59.777 76.848C58.721 76.848 57.833 76.488 57.113 75.768C56.441 75.096 56.105 74.232 56.105 73.176V40.344C56.153 36.552 57.041 33.144 58.769 30.12C60.497 27.096 62.849 24.72 65.825 22.992C68.801 21.216 72.161 20.328 75.905 20.328C79.697 20.328 83.081 21.216 86.057 22.992C89.033 24.72 91.385 27.096 93.113 30.12C94.889 33.144 95.777 36.552 95.777 40.344C95.777 44.136 94.961 47.544 93.329 50.568C91.745 53.544 89.561 55.92 86.777 57.696C83.993 59.424 80.849 60.288 77.345 60.288C74.513 60.288 71.897 59.712 69.497 58.56C67.145 57.36 65.129 55.752 63.449 53.736V73.176C63.449 74.232 63.113 75.096 62.441 75.768C61.769 76.488 60.881 76.848 59.777 76.848ZM75.905 53.808C78.353 53.808 80.537 53.232 82.457 52.08C84.377 50.88 85.889 49.272 86.993 47.256C88.145 45.192 88.721 42.888 88.721 40.344C88.721 37.752 88.145 35.448 86.993 33.432C85.889 31.368 84.377 29.76 82.457 28.608C80.537 27.408 78.353 26.808 75.905 26.808C73.505 26.808 71.321 27.408 69.353 28.608C67.433 29.76 65.921 31.368 64.817 33.432C63.713 35.448 63.161 37.752 63.161 40.344C63.161 42.888 63.713 45.192 64.817 47.256C65.921 49.272 67.433 50.88 69.353 52.08C71.321 53.232 73.505 53.808 75.905 53.808Z" fill="white"/>
<path d="M110.402 76.848C109.346 76.848 108.458 76.488 107.738 75.768C107.066 75.096 106.73 74.232 106.73 73.176V40.344C106.778 36.552 107.666 33.144 109.394 30.12C111.122 27.096 113.474 24.72 116.45 22.992C119.426 21.216 122.786 20.328 126.53 20.328C130.322 20.328 133.706 21.216 136.682 22.992C139.658 24.72 142.01 27.096 143.738 30.12C145.514 33.144 146.402 36.552 146.402 40.344C146.402 44.136 145.586 47.544 143.954 50.568C142.37 53.544 140.186 55.92 137.402 57.696C134.618 59.424 131.474 60.288 127.97 60.288C125.138 60.288 122.522 59.712 120.122 58.56C117.77 57.36 115.754 55.752 114.074 53.736V73.176C114.074 74.232 113.738 75.096 113.066 75.768C112.394 76.488 111.506 76.848 110.402 76.848ZM126.53 53.808C128.978 53.808 131.162 53.232 133.082 52.08C135.002 50.88 136.514 49.272 137.618 47.256C138.77 45.192 139.346 42.888 139.346 40.344C139.346 37.752 138.77 35.448 137.618 33.432C136.514 31.368 135.002 29.76 133.082 28.608C131.162 27.408 128.978 26.808 126.53 26.808C124.13 26.808 121.946 27.408 119.978 28.608C118.058 29.76 116.546 31.368 115.442 33.432C114.338 35.448 113.786 37.752 113.786 40.344C113.786 42.888 114.338 45.192 115.442 47.256C116.546 49.272 118.058 50.88 119.978 52.08C121.946 53.232 124.13 53.808 126.53 53.808Z" fill="white"/>
<path d="M175.859 60.288C171.875 60.288 168.323 59.448 165.203 57.768C162.131 56.04 159.707 53.688 157.931 50.712C156.203 47.688 155.339 44.232 155.339 40.344C155.339 36.408 156.155 32.952 157.787 29.976C159.467 26.952 161.771 24.6 164.699 22.92C167.627 21.192 170.987 20.328 174.779 20.328C178.523 20.328 181.739 21.168 184.427 22.848C187.115 24.48 189.155 26.76 190.547 29.688C191.987 32.568 192.707 35.904 192.707 39.696C192.707 40.608 192.395 41.376 191.771 42C191.147 42.576 190.355 42.864 189.395 42.864H162.035C162.563 46.176 164.075 48.888 166.571 51C169.115 53.064 172.211 54.096 175.859 54.096C177.347 54.096 178.859 53.832 180.395 53.304C181.979 52.728 183.251 52.08 184.211 51.36C184.931 50.832 185.699 50.568 186.515 50.568C187.379 50.52 188.123 50.76 188.747 51.288C189.563 52.008 189.995 52.8 190.043 53.664C190.091 54.528 189.707 55.272 188.891 55.896C187.259 57.192 185.219 58.248 182.771 59.064C180.371 59.88 178.067 60.288 175.859 60.288ZM174.779 26.52C171.227 26.52 168.371 27.504 166.211 29.472C164.051 31.44 162.683 33.984 162.107 37.104H186.083C185.651 34.032 184.475 31.512 182.555 29.544C180.635 27.528 178.043 26.52 174.779 26.52ZM174.347 14.424C173.291 14.424 172.403 14.088 171.683 13.416C171.011 12.696 170.675 11.808 170.675 10.752C170.675 9.74397 170.963 8.92797 171.539 8.30397L178.595 1.24797C179.315 0.527968 180.179 0.167969 181.187 0.167969C182.291 0.167969 183.179 0.527968 183.851 1.24797C184.523 1.96797 184.859 2.85597 184.859 3.91197C184.859 4.96797 184.523 5.80797 183.851 6.43197L176.867 13.416C176.195 14.088 175.355 14.424 174.347 14.424Z" fill="white"/>
<path d="M216.402 60C214.002 60 211.842 59.4 209.922 58.2C208.002 56.952 206.49 55.272 205.386 53.16C204.282 51.048 203.73 48.672 203.73 46.032V28.248H200.418C199.41 28.248 198.594 27.96 197.97 27.384C197.346 26.808 197.034 26.088 197.034 25.224C197.034 24.264 197.346 23.496 197.97 22.92C198.594 22.344 199.41 22.056 200.418 22.056H203.73V11.688C203.73 10.632 204.066 9.76797 204.738 9.09597C205.41 8.42397 206.274 8.08797 207.33 8.08797C208.386 8.08797 209.25 8.42397 209.922 9.09597C210.594 9.76797 210.93 10.632 210.93 11.688V22.056H217.05C218.058 22.056 218.874 22.344 219.498 22.92C220.122 23.496 220.434 24.264 220.434 25.224C220.434 26.088 220.122 26.808 219.498 27.384C218.874 27.96 218.058 28.248 217.05 28.248H210.93V46.032C210.93 47.952 211.458 49.56 212.514 50.856C213.57 52.152 214.866 52.8 216.402 52.8H218.85C219.714 52.8 220.434 53.136 221.01 53.808C221.634 54.48 221.946 55.344 221.946 56.4C221.946 57.456 221.538 58.32 220.722 58.992C219.954 59.664 218.946 60 217.698 60H216.402Z" fill="white"/>
<path d="M235.364 60C234.308 60 233.42 59.664 232.7 58.992C232.028 58.272 231.692 57.384 231.692 56.328V24.288C231.692 23.184 232.028 22.296 232.7 21.624C233.42 20.952 234.308 20.616 235.364 20.616C236.468 20.616 237.356 20.952 238.028 21.624C238.7 22.296 239.036 23.184 239.036 24.288V56.328C239.036 57.384 238.7 58.272 238.028 58.992C237.356 59.664 236.468 60 235.364 60ZM235.364 14.208C234.068 14.208 232.94 13.752 231.98 12.84C231.068 11.88 230.612 10.752 230.612 9.45597C230.612 8.15997 231.068 7.05597 231.98 6.14397C232.94 5.18397 234.068 4.70397 235.364 4.70397C236.66 4.70397 237.764 5.18397 238.676 6.14397C239.636 7.05597 240.116 8.15997 240.116 9.45597C240.116 10.752 239.636 11.88 238.676 12.84C237.764 13.752 236.66 14.208 235.364 14.208Z" fill="white"/>
<path d="M267.027 60C264.627 60 262.467 59.4 260.547 58.2C258.627 56.952 257.115 55.272 256.011 53.16C254.907 51.048 254.355 48.672 254.355 46.032V28.248H251.043C250.035 28.248 249.219 27.96 248.595 27.384C247.971 26.808 247.659 26.088 247.659 25.224C247.659 24.264 247.971 23.496 248.595 22.92C249.219 22.344 250.035 22.056 251.043 22.056H254.355V11.688C254.355 10.632 254.691 9.76797 255.363 9.09597C256.035 8.42397 256.899 8.08797 257.955 8.08797C259.011 8.08797 259.875 8.42397 260.547 9.09597C261.219 9.76797 261.555 10.632 261.555 11.688V22.056H267.675C268.683 22.056 269.499 22.344 270.123 22.92C270.747 23.496 271.059 24.264 271.059 25.224C271.059 26.088 270.747 26.808 270.123 27.384C269.499 27.96 268.683 28.248 267.675 28.248H261.555V46.032C261.555 47.952 262.083 49.56 263.139 50.856C264.195 52.152 265.491 52.8 267.027 52.8H269.475C270.339 52.8 271.059 53.136 271.635 53.808C272.259 54.48 272.571 55.344 272.571 56.4C272.571 57.456 272.163 58.32 271.347 58.992C270.579 59.664 269.571 60 268.323 60H267.027Z" fill="white"/>
</svg>
