<svg width="288" height="57" viewBox="0 0 288 57" fill="none" xmlns="http://www.w3.org/2000/svg">
<g filter="url(#filter0_d)">
<path d="M5.28822 52.7299C4.09251 52.7299 3.17437 52.1898 2.5338 51.1096C1.89324 50.0293 1.82918 48.8815 2.34163 47.6662L20.3415 2.36305C20.982 0.787685 22.0283 0 23.4802 0C25.0176 0 26.0638 0.787685 26.619 2.36305L44.6829 47.8013C45.1526 49.0616 45.0672 50.2093 44.4266 51.2446C43.8288 52.2348 42.9106 52.7299 41.6722 52.7299C41.0316 52.7299 40.4124 52.5499 39.8146 52.1898C39.2594 51.7847 38.8537 51.2446 38.5975 50.5694L35.0104 41.1172L23.6083 11.2752L12.0141 41.1172L8.36293 50.5694C8.064 51.2896 7.6156 51.8297 7.01774 52.1898C6.46259 52.5499 5.88608 52.7299 5.28822 52.7299Z" fill="white"/>
<path d="M60.0003 52.7299C58.1213 52.7299 56.4559 52.1898 55.0039 51.1096C53.552 50.0293 52.4203 48.5665 51.6089 46.721C50.7976 44.8306 50.3919 42.6701 50.3919 40.2395V3.3758C50.3919 2.38556 50.6908 1.57537 51.2887 0.945223C51.8865 0.315074 52.6552 0 53.5947 0C54.5342 0 55.3029 0.315074 55.9007 0.945223C56.4986 1.57537 56.7975 2.38556 56.7975 3.3758V40.2395C56.7975 41.9049 57.0964 43.2777 57.6943 44.358C58.2922 45.4382 59.0608 45.9783 60.0003 45.9783H61.6017C62.4558 45.9783 63.1391 46.2934 63.6515 46.9236C64.2067 47.5537 64.4843 48.3639 64.4843 49.3541C64.4843 50.3444 64.0786 51.1546 63.2672 51.7847C62.4558 52.4149 61.4096 52.7299 60.1284 52.7299H60.0003Z" fill="white"/>
<path d="M74.7848 52.7299C73.8453 52.7299 73.0553 52.4149 72.4147 51.7847C71.8169 51.1096 71.5179 50.2769 71.5179 49.2866V19.242C71.5179 18.2068 71.8169 17.3741 72.4147 16.7439C73.0553 16.1138 73.8453 15.7987 74.7848 15.7987C75.767 15.7987 76.557 16.1138 77.1549 16.7439C77.7528 17.3741 78.0517 18.2068 78.0517 19.242V49.2866C78.0517 50.2769 77.7528 51.1096 77.1549 51.7847C76.557 52.4149 75.767 52.7299 74.7848 52.7299ZM74.7848 9.78981C73.6318 9.78981 72.6283 9.36221 71.7742 8.50701C70.9628 7.60679 70.5571 6.54904 70.5571 5.33376C70.5571 4.11847 70.9628 3.08323 71.7742 2.22802C72.6283 1.32781 73.6318 0.877708 74.7848 0.877708C75.9378 0.877708 76.92 1.32781 77.7314 2.22802C78.5855 3.08323 79.0125 4.11847 79.0125 5.33376C79.0125 6.54904 78.5855 7.60679 77.7314 8.50701C76.92 9.36221 75.9378 9.78981 74.7848 9.78981Z" fill="white"/>
<path d="M93.4737 52.7975C92.5343 52.7975 91.7442 52.4824 91.1037 51.8522C90.5058 51.1771 90.2069 50.3444 90.2069 49.3541V19.3096C90.2069 18.2743 90.5058 17.4416 91.1037 16.8115C91.7442 16.1813 92.5343 15.8662 93.4737 15.8662C94.4559 15.8662 95.246 16.1813 95.8438 16.8115C96.4417 17.4416 96.7406 18.2293 96.7406 19.1745C97.8509 18.0042 99.1748 17.104 100.712 16.4739C102.249 15.7987 103.915 15.4611 105.709 15.4611C110.192 15.4611 113.566 17.2391 115.829 20.7949C117.068 19.1295 118.648 17.8242 120.57 16.879C122.491 15.9338 124.648 15.4611 127.039 15.4611C130.712 15.4611 133.701 16.7214 136.007 19.242C138.313 21.7626 139.466 25.3635 139.466 30.0446V49.3541C139.466 50.3444 139.167 51.1771 138.569 51.8522C137.972 52.4824 137.182 52.7975 136.199 52.7975C135.26 52.7975 134.47 52.4824 133.829 51.8522C133.231 51.1771 132.932 50.3444 132.932 49.3541V30.0446C132.932 27.2089 132.271 25.1159 130.947 23.7656C129.623 22.3703 127.893 21.6726 125.758 21.6726C123.538 21.6726 121.701 22.4828 120.249 24.1032C118.84 25.7236 118.135 27.7941 118.135 30.3146V49.3541C118.135 50.3444 117.837 51.1771 117.239 51.8522C116.641 52.4824 115.851 52.7975 114.869 52.7975C113.929 52.7975 113.139 52.4824 112.498 51.8522C111.901 51.1771 111.602 50.3444 111.602 49.3541V30.0446C111.602 27.2089 110.94 25.1159 109.616 23.7656C108.292 22.3703 106.563 21.6726 104.427 21.6726C102.207 21.6726 100.37 22.4828 98.9185 24.1032C97.4666 25.7236 96.7406 27.7941 96.7406 30.3146V49.3541C96.7406 50.3444 96.4417 51.1771 95.8438 51.8522C95.246 52.4824 94.4559 52.7975 93.4737 52.7975Z" fill="white"/>
<path d="M166.785 53C163.24 53 160.08 52.2123 157.304 50.6369C154.571 49.0166 152.415 46.811 150.835 44.0204C149.297 41.1847 148.529 37.9439 148.529 34.2981C148.529 30.6072 149.255 27.3665 150.707 24.5758C152.201 21.7401 154.251 19.5346 156.856 17.9592C159.461 16.3389 162.45 15.5287 165.824 15.5287C169.155 15.5287 172.016 16.3163 174.407 17.8917C176.799 19.4221 178.614 21.5601 179.852 24.3057C181.133 27.0064 181.774 30.1346 181.774 33.6904C181.774 34.5456 181.496 35.2658 180.941 35.851C180.386 36.3911 179.681 36.6611 178.827 36.6611H154.486C154.956 39.7669 156.301 42.31 158.521 44.2904C160.785 46.2259 163.539 47.1936 166.785 47.1936C168.109 47.1936 169.454 46.9461 170.82 46.451C172.229 45.9108 173.361 45.3032 174.215 44.628C174.856 44.1329 175.539 43.8853 176.265 43.8853C177.034 43.8403 177.696 44.0654 178.251 44.5605C178.977 45.2357 179.361 45.9783 179.404 46.7885C179.446 47.5987 179.105 48.2964 178.379 48.8815C176.927 50.0968 175.112 51.087 172.934 51.8522C170.799 52.6174 168.749 53 166.785 53ZM165.824 21.335C162.664 21.335 160.123 22.2577 158.201 24.1032C156.279 25.9486 155.062 28.3342 154.55 31.2599H175.881C175.496 28.3792 174.45 26.0161 172.742 24.1707C171.034 22.2803 168.728 21.335 165.824 21.335Z" fill="white"/>
<path d="M193.374 52.7975C192.435 52.7975 191.645 52.4824 191.004 51.8522C190.406 51.1771 190.107 50.3444 190.107 49.3541V19.242C190.107 18.2068 190.406 17.3741 191.004 16.7439C191.645 16.1138 192.435 15.7987 193.374 15.7987C194.356 15.7987 195.146 16.1138 195.744 16.7439C196.342 17.3741 196.641 18.2068 196.641 19.242V19.9847C197.965 18.5894 199.566 17.4866 201.445 16.6764C203.324 15.8662 205.353 15.4611 207.531 15.4611C210.477 15.4611 213.103 16.1363 215.409 17.4866C217.758 18.7919 219.594 20.7274 220.918 23.293C222.285 25.8586 222.968 29.0093 222.968 32.7452V49.3541C222.968 50.3444 222.648 51.1771 222.007 51.8522C221.409 52.4824 220.641 52.7975 219.701 52.7975C218.762 52.7975 217.972 52.4824 217.331 51.8522C216.733 51.1771 216.434 50.3444 216.434 49.3541V32.7452C216.434 28.9193 215.452 26.1287 213.488 24.3732C211.566 22.5728 209.153 21.6726 206.249 21.6726C204.456 21.6726 202.833 22.0552 201.381 22.8204C199.929 23.5856 198.776 24.6208 197.922 25.9261C197.068 27.1864 196.641 28.6493 196.641 30.3146V49.3541C196.641 50.3444 196.342 51.1771 195.744 51.8522C195.146 52.4824 194.356 52.7975 193.374 52.7975Z" fill="white"/>
<path d="M246.518 52.7299C244.383 52.7299 242.461 52.1673 240.753 51.042C239.045 49.8718 237.699 48.2964 236.717 46.3159C235.735 44.3355 235.244 42.1074 235.244 39.6318V22.9554H232.297C231.4 22.9554 230.675 22.6853 230.119 22.1452C229.564 21.6051 229.287 20.9299 229.287 20.1197C229.287 19.2195 229.564 18.4994 230.119 17.9592C230.675 17.4191 231.4 17.149 232.297 17.149H235.244V7.42675C235.244 6.43652 235.543 5.62633 236.141 4.99618C236.739 4.36603 237.507 4.05096 238.447 4.05096C239.386 4.05096 240.155 4.36603 240.753 4.99618C241.351 5.62633 241.65 6.43652 241.65 7.42675V17.149H247.094C247.991 17.149 248.717 17.4191 249.272 17.9592C249.827 18.4994 250.105 19.2195 250.105 20.1197C250.105 20.9299 249.827 21.6051 249.272 22.1452C248.717 22.6853 247.991 22.9554 247.094 22.9554H241.65V39.6318C241.65 41.4323 242.119 42.9401 243.059 44.1554C243.998 45.3707 245.151 45.9783 246.518 45.9783H248.696C249.464 45.9783 250.105 46.2934 250.617 46.9236C251.173 47.5537 251.45 48.3639 251.45 49.3541C251.45 50.3444 251.087 51.1546 250.361 51.7847C249.678 52.4149 248.781 52.7299 247.671 52.7299H246.518Z" fill="white"/>
<path d="M272.228 53C269.239 53 266.463 52.5274 263.901 51.5822C261.381 50.5919 259.417 49.3541 258.007 47.8688C257.367 47.1486 257.089 46.3384 257.175 45.4382C257.303 44.493 257.73 43.7278 258.456 43.1427C259.31 42.4225 260.143 42.1299 260.954 42.265C261.808 42.355 262.534 42.7376 263.132 43.4127C263.858 44.2679 265.011 45.0781 266.591 45.8433C268.214 46.5635 270.007 46.9236 271.972 46.9236C274.448 46.9236 276.327 46.496 277.609 45.6408C278.932 44.7856 279.616 43.6828 279.658 42.3325C279.701 40.9822 279.082 39.8119 277.801 38.8217C276.562 37.8314 274.278 37.0212 270.947 36.3911C266.634 35.4909 263.495 34.1406 261.53 32.3401C259.609 30.5397 258.648 28.3342 258.648 25.7236C258.648 23.428 259.289 21.5376 260.57 20.0522C261.851 18.5219 263.495 17.3966 265.502 16.6764C267.509 15.9113 269.602 15.5287 271.779 15.5287C274.598 15.5287 277.096 16.0013 279.274 16.9465C281.452 17.8917 283.182 19.197 284.463 20.8624C285.061 21.5826 285.338 22.3478 285.295 23.158C285.253 23.9231 284.89 24.5758 284.206 25.1159C283.523 25.611 282.712 25.7686 281.772 25.5885C280.833 25.4085 280.043 25.0034 279.402 24.3732C278.335 23.293 277.182 22.5503 275.943 22.1452C274.705 21.7401 273.274 21.5376 271.651 21.5376C269.772 21.5376 268.171 21.8752 266.847 22.5503C265.566 23.2255 264.925 24.2157 264.925 25.521C264.925 26.3312 265.118 27.0739 265.502 27.749C265.929 28.3792 266.74 28.9643 267.936 29.5045C269.132 29.9996 270.883 30.4947 273.189 30.9898C278.014 31.98 281.345 33.3979 283.182 35.2433C285.061 37.0437 286 39.2718 286 41.9274C286 43.9979 285.466 45.8658 284.399 47.5312C283.374 49.1966 281.836 50.5244 279.787 51.5146C277.779 52.5049 275.26 53 272.228 53Z" fill="white"/>
</g>
<defs>
<filter id="filter0_d" x="0" y="0" width="288" height="57" filterUnits="userSpaceOnUse" color-interpolation-filters="sRGB">
<feFlood flood-opacity="0" result="BackgroundImageFix"/>
<feColorMatrix in="SourceAlpha" type="matrix" values="0 0 0 0 0 0 0 0 0 0 0 0 0 0 0 0 0 0 127 0" result="hardAlpha"/>
<feOffset dy="2"/>
<feGaussianBlur stdDeviation="1"/>
<feComposite in2="hardAlpha" operator="out"/>
<feColorMatrix type="matrix" values="0 0 0 0 0 0 0 0 0 0 0 0 0 0 0 0 0 0 0.14 0"/>
<feBlend mode="normal" in2="BackgroundImageFix" result="effect1_dropShadow"/>
<feBlend mode="normal" in="SourceGraphic" in2="effect1_dropShadow" result="shape"/>
</filter>
</defs>
</svg>
