<svg width="522" height="577" viewBox="0 0 522 577" fill="none" xmlns="http://www.w3.org/2000/svg">
<path d="M55.5399 412.337C83.521 459.392 121.848 500.373 171.27 526.198C218.504 550.896 268.782 549.999 319.642 537.68C368.933 525.762 416.262 504.386 453.376 471.492C490.49 438.599 516.806 393.616 521.337 345.397C525.868 297.178 507.067 246.109 468.146 214.379C424.824 179.024 363.332 170.61 317.847 137.813C292.541 119.626 273.455 94.6982 249.791 74.5715C226.388 54.6751 198.097 39.4103 167.417 33.6269C136.736 27.8435 103.594 31.978 77.3017 47.7641C26.9047 77.9663 8.1872 140.044 1.92028 193.477C-7.02227 269.776 16.0119 345.87 55.5399 412.337Z" fill="#3ADEC5"/>
<path opacity="0.7" d="M55.5399 412.337C83.521 459.392 121.848 500.373 171.27 526.198C218.504 550.896 268.782 549.999 319.642 537.68C368.933 525.762 416.262 504.386 453.376 471.492C490.49 438.599 516.806 393.616 521.337 345.397C525.868 297.178 507.067 246.109 468.146 214.379C424.824 179.024 363.332 170.61 317.847 137.813C292.541 119.626 273.455 94.6982 249.791 74.5715C226.388 54.6751 198.097 39.4103 167.417 33.6269C136.736 27.8435 103.594 31.978 77.3017 47.7641C26.9047 77.9663 8.1872 140.044 1.92028 193.477C-7.02227 269.776 16.0119 345.87 55.5399 412.337Z" fill="white"/>
<path d="M241.359 577C292.258 577 333.52 574.286 333.52 570.938C333.52 567.59 292.258 564.875 241.359 564.875C190.46 564.875 149.199 567.59 149.199 570.938C149.199 574.286 190.46 577 241.359 577Z" fill="#263238"/>
<path d="M267.652 441.302C267.652 441.302 216.767 449.038 186.384 451.184C156.001 453.33 131.754 446.807 117.543 456.822C103.333 466.837 102.084 496.833 111.942 518.366C121.8 539.899 130.065 547.634 145.536 553.394C161.007 559.153 199.62 561.711 259.625 555.818C319.63 549.926 349.716 528.611 360.193 506.496C370.67 484.381 369.552 474.657 365.544 471.565C361.537 468.473 351.167 464.969 351.167 464.969C351.167 464.969 355.424 444.964 338.847 433.009C327.788 425.019 294.92 433.179 267.652 441.302Z" fill="white"/>
<path d="M123.691 538.068C123.691 538.068 129.506 541.354 139.305 540.711C149.104 540.069 157.142 528.587 167.441 518.826C177.739 509.066 217.457 499.706 256.628 497.948C295.8 496.19 327.241 487.933 344.175 481.434C361.109 474.936 368.006 478.791 368.006 482.744C368.006 486.696 361.632 504.568 358.611 510C351.072 523.628 337.884 534.006 322.128 540.529C306.371 547.052 282.79 552.654 255.725 556.206C228.659 559.759 191.509 558.74 178.583 558.122C165.657 557.504 141.005 556.704 123.691 538.068Z" fill="#3ADEC5"/>
<path opacity="0.5" d="M123.691 538.068C123.691 538.068 129.506 541.354 139.305 540.711C149.104 540.069 157.142 528.587 167.441 518.826C177.739 509.066 217.457 499.706 256.628 497.948C295.8 496.19 327.241 487.933 344.175 481.434C361.109 474.936 368.006 478.791 368.006 482.744C368.006 486.696 362.31 504.859 358.611 510C349.55 522.634 337.884 534.006 322.128 540.529C306.371 547.052 282.79 552.654 255.725 556.206C228.659 559.759 191.509 558.74 178.583 558.122C165.657 557.504 141.005 556.704 123.691 538.068Z" fill="white"/>
<path d="M267.652 441.302C267.652 441.302 216.767 449.038 186.384 451.184C156.001 453.33 131.754 446.807 117.543 456.822C103.333 466.837 102.084 496.833 111.942 518.366C121.8 539.899 130.065 547.634 145.536 553.394C161.007 559.153 199.62 561.711 259.625 555.818C319.63 549.926 349.716 528.611 360.193 506.496C370.67 484.381 369.552 474.657 365.544 471.565C361.537 468.473 351.167 464.969 351.167 464.969C351.167 464.969 355.424 444.964 338.847 433.009C327.788 425.019 294.92 433.179 267.652 441.302Z" stroke="#263238" stroke-miterlimit="10"/>
<path d="M343.711 469.795C345.405 469.133 346.99 468.209 348.408 467.055Z" fill="white"/>
<path d="M343.711 469.795C345.405 469.133 346.99 468.209 348.408 467.055" stroke="#263238" stroke-miterlimit="10"/>
<path d="M119.743 475.675C119.91 479.313 118.09 486.236 119.03 492.237C122.157 512.304 127.758 521.652 139.02 522.282C150.281 522.912 157.083 502.264 169.236 499.997C181.39 497.73 220.061 496.275 280.198 485.86C311.39 480.452 328.573 475.603 337.884 472.183" fill="white"/>
<path d="M119.743 475.675C119.91 479.313 118.09 486.236 119.03 492.237C122.157 512.304 127.758 521.652 139.02 522.282C150.281 522.912 157.083 502.264 169.236 499.997C181.39 497.73 220.061 496.275 280.198 485.86C311.39 480.452 328.573 475.603 337.884 472.183" stroke="#263238" stroke-miterlimit="10"/>
<path d="M120.445 464.242C119.939 465.981 119.687 467.787 119.696 469.601Z" fill="white"/>
<path d="M120.445 464.242C119.939 465.981 119.687 467.787 119.696 469.601" stroke="#263238" stroke-miterlimit="10"/>
<path d="M180.426 521.445C181.413 522.488 182.496 524.476 181.972 524.998C181.449 525.519 179.523 524.355 178.536 523.313C177.549 522.27 177.168 521.021 177.691 520.5C178.215 519.978 179.439 520.403 180.426 521.445Z" fill="white" stroke="#263238" stroke-miterlimit="10"/>
<path d="M201.332 521.882C200.821 523.228 199.501 525.071 198.823 524.804C198.145 524.537 198.359 522.27 198.823 520.924C199.287 519.578 200.297 518.693 200.975 518.96C201.653 519.227 201.831 520.536 201.332 521.882Z" fill="white" stroke="#263238" stroke-miterlimit="10"/>
<path d="M202.807 536.359C202.295 537.704 200.975 539.547 200.297 539.281C199.62 539.014 199.845 536.747 200.297 535.401C200.749 534.055 201.772 533.17 202.45 533.437C203.128 533.703 203.318 535.013 202.807 536.359Z" fill="white" stroke="#263238" stroke-miterlimit="10"/>
<path d="M191.426 530.005C190.915 531.363 189.595 533.194 188.917 532.927C188.239 532.661 188.465 530.405 188.917 529.047C189.369 527.69 190.392 526.817 191.069 527.083C191.747 527.35 191.937 528.659 191.426 530.005Z" fill="white" stroke="#263238" stroke-miterlimit="10"/>
<path d="M177.739 538.783C177.227 540.129 175.908 541.972 175.23 541.705C174.552 541.439 174.778 539.171 175.23 537.826C175.682 536.48 176.704 535.595 177.382 535.861C178.06 536.128 178.25 537.426 177.739 538.783Z" fill="white" stroke="#263238" stroke-miterlimit="10"/>
<path d="M216.101 507.151C217.088 508.193 218.171 510.182 217.647 510.703C217.124 511.224 215.198 510.06 214.211 509.018C213.224 507.975 212.843 506.726 213.366 506.205C213.89 505.683 215.114 506.12 216.101 507.151Z" fill="white" stroke="#263238" stroke-miterlimit="10"/>
<path d="M237.007 507.587C236.496 508.945 235.176 510.776 234.498 510.509C233.82 510.242 234.046 507.975 234.498 506.629C234.95 505.283 235.972 504.398 236.65 504.665C237.328 504.932 237.518 506.241 237.007 507.587Z" fill="white" stroke="#263238" stroke-miterlimit="10"/>
<path d="M238.482 522.064C237.97 523.422 236.65 525.252 235.972 524.986C235.295 524.719 235.521 522.452 235.972 521.106C236.424 519.76 237.447 518.875 238.125 519.142C238.803 519.408 238.993 520.718 238.482 522.064Z" fill="white" stroke="#263238" stroke-miterlimit="10"/>
<path d="M227.101 515.723C226.59 517.068 225.27 518.899 224.592 518.632C223.914 518.366 224.14 516.111 224.592 514.753C225.044 513.395 226.067 512.522 226.744 512.788C227.422 513.055 227.613 514.365 227.101 515.723Z" fill="white" stroke="#263238" stroke-miterlimit="10"/>
<path d="M213.414 524.489C212.903 525.847 211.583 527.677 210.905 527.411C210.227 527.144 210.453 524.877 210.905 523.531C211.357 522.185 212.379 521.3 213.057 521.567C213.735 521.833 213.925 523.143 213.414 524.489Z" fill="white" stroke="#263238" stroke-miterlimit="10"/>
<path d="M220.097 530.709C221.084 531.751 222.166 533.752 221.643 534.261C221.12 534.77 219.265 533.618 218.218 532.588C217.172 531.557 216.851 530.284 217.362 529.775C217.873 529.266 219.11 529.714 220.097 530.709Z" fill="white" stroke="#263238" stroke-miterlimit="10"/>
<path d="M241.003 531.157C240.491 532.503 239.171 534.334 238.493 534.067C237.816 533.8 238.042 531.545 238.493 530.187C238.945 528.829 239.968 527.956 240.646 528.223C241.324 528.49 241.514 529.799 241.003 531.157Z" fill="white" stroke="#263238" stroke-miterlimit="10"/>
<path d="M242.477 545.634C241.978 546.98 240.658 548.81 239.98 548.544C239.302 548.277 239.516 546.022 239.98 544.664C240.444 543.306 241.443 542.433 242.12 542.7C242.798 542.966 242.988 544.264 242.477 545.634Z" fill="white" stroke="#263238" stroke-miterlimit="10"/>
<path d="M231.097 539.281C230.597 540.626 229.277 542.469 228.6 542.203C227.922 541.936 228.136 539.669 228.6 538.323C229.063 536.977 230.062 536.092 230.74 536.359C231.418 536.625 231.608 537.923 231.097 539.281Z" fill="white" stroke="#263238" stroke-miterlimit="10"/>
<path d="M217.41 548.047C216.898 549.405 215.578 551.235 214.9 550.969C214.223 550.702 214.448 548.447 214.9 547.089C215.352 545.731 216.375 544.858 217.053 545.125C217.731 545.391 217.921 546.689 217.41 548.047Z" fill="white" stroke="#263238" stroke-miterlimit="10"/>
<path d="M254.107 516.28C255.094 517.323 256.164 519.311 255.641 519.833C255.118 520.354 253.263 519.19 252.216 518.16C251.17 517.129 250.849 515.856 251.372 515.335C251.895 514.813 253.108 515.25 254.107 516.28Z" fill="white" stroke="#263238" stroke-miterlimit="10"/>
<path d="M275.001 516.717C274.501 518.075 273.17 519.906 272.492 519.639C271.814 519.372 272.04 517.117 272.551 515.759C273.063 514.401 274.014 513.528 274.692 513.795C275.37 514.062 275.512 515.371 275.001 516.717Z" fill="white" stroke="#263238" stroke-miterlimit="10"/>
<path d="M276.44 531.194C275.94 532.551 274.62 534.382 273.943 534.116C273.265 533.849 273.479 531.594 273.943 530.236C274.406 528.878 275.405 528.005 276.083 528.271C276.761 528.538 276.987 529.848 276.44 531.194Z" fill="white" stroke="#263238" stroke-miterlimit="10"/>
<path d="M265.095 524.865C264.596 526.21 263.276 528.053 262.598 527.787C261.92 527.52 262.134 525.252 262.598 523.907C263.062 522.561 264.061 521.676 264.738 521.93C265.416 522.185 265.606 523.494 265.095 524.865Z" fill="white" stroke="#263238" stroke-miterlimit="10"/>
<path d="M251.467 533.618C250.968 534.976 249.648 536.807 248.97 536.54C248.292 536.274 248.506 534.019 248.97 532.661C249.434 531.303 250.433 530.43 251.111 530.696C251.788 530.963 251.919 532.273 251.467 533.618Z" fill="white" stroke="#263238" stroke-miterlimit="10"/>
<path d="M289.342 499.039C290.329 500.082 291.4 502.07 290.876 502.592C290.353 503.113 288.439 501.949 287.451 500.906C286.464 499.864 286.084 498.615 286.607 498.094C287.13 497.572 288.331 498.009 289.342 499.039Z" fill="white" stroke="#263238" stroke-miterlimit="10"/>
<path d="M310.236 499.476C309.737 500.834 308.417 502.664 307.739 502.398C307.061 502.131 307.275 499.864 307.739 498.518C308.203 497.172 309.201 496.287 309.879 496.554C310.557 496.82 310.747 498.191 310.236 499.476Z" fill="white" stroke="#263238" stroke-miterlimit="10"/>
<path d="M311.722 513.952C311.211 515.31 309.891 517.141 309.213 516.874C308.535 516.608 308.75 514.34 309.213 512.995C309.677 511.649 310.688 510.764 311.366 511.03C312.044 511.297 312.222 512.607 311.722 513.952Z" fill="white" stroke="#263238" stroke-miterlimit="10"/>
<path d="M300.342 507.611C299.831 508.957 298.511 510.788 297.833 510.521C297.155 510.254 297.369 507.999 297.833 506.641C298.297 505.283 299.308 504.41 299.985 504.677C300.663 504.944 300.842 506.253 300.342 507.611Z" fill="white" stroke="#263238" stroke-miterlimit="10"/>
<path d="M286.643 516.377C286.143 517.723 284.823 519.566 284.146 519.299C283.468 519.033 283.682 516.765 284.146 515.419C284.609 514.074 285.608 513.189 286.286 513.455C286.964 513.722 287.142 515.031 286.643 516.377Z" fill="white" stroke="#263238" stroke-miterlimit="10"/>
<path d="M300.509 521.106C301.496 522.136 302.578 524.137 302.055 524.646C301.531 525.156 299.617 524.004 298.618 522.973C297.619 521.943 297.25 520.669 297.773 520.16C298.297 519.651 299.522 520.015 300.509 521.106Z" fill="white" stroke="#263238" stroke-miterlimit="10"/>
<path d="M321.414 521.542C320.903 522.888 319.583 524.719 318.905 524.452C318.227 524.186 318.453 521.93 318.905 520.572C319.357 519.214 320.38 518.342 321.057 518.608C321.735 518.875 321.926 520.184 321.414 521.542Z" fill="white" stroke="#263238" stroke-miterlimit="10"/>
<path d="M322.889 536.019C322.389 537.365 321.057 539.196 320.38 538.941C319.702 538.686 319.928 536.407 320.439 535.049C320.95 533.691 321.902 532.818 322.58 533.085C323.257 533.352 323.4 534.661 322.889 536.019Z" fill="white" stroke="#263238" stroke-miterlimit="10"/>
<path d="M311.508 529.714C311.009 531.06 309.677 532.903 308.999 532.636C308.321 532.37 308.547 530.102 309.059 528.756C309.57 527.411 310.521 526.526 311.199 526.792C311.877 527.059 312.02 528.32 311.508 529.714Z" fill="white" stroke="#263238" stroke-miterlimit="10"/>
<path d="M297.845 538.432C297.334 539.79 296.014 541.621 295.336 541.354C294.658 541.087 294.884 538.832 295.336 537.474C295.788 536.116 296.81 535.243 297.488 535.51C298.166 535.777 298.332 537.086 297.845 538.432Z" fill="white" stroke="#263238" stroke-miterlimit="10"/>
<path d="M326.385 491.546C327.372 492.589 328.454 494.577 327.931 495.099C327.408 495.62 325.481 494.456 324.494 493.413C323.507 492.371 323.127 491.122 323.65 490.601C324.173 490.079 325.422 490.516 326.385 491.546Z" fill="white" stroke="#263238" stroke-miterlimit="10"/>
<path d="M347.314 491.983C346.803 493.341 345.483 495.172 344.805 494.905C344.127 494.638 344.341 492.383 344.805 491.025C345.269 489.667 346.28 488.794 346.958 489.061C347.635 489.328 347.79 490.637 347.314 491.983Z" fill="white" stroke="#263238" stroke-miterlimit="10"/>
<path d="M348.789 506.459C348.278 507.817 346.958 509.648 346.28 509.381C345.602 509.115 345.828 506.86 346.28 505.502C346.732 504.144 347.754 503.271 348.432 503.537C349.11 503.804 349.3 505.114 348.789 506.459Z" fill="white" stroke="#263238" stroke-miterlimit="10"/>
<path d="M337.408 500.118C336.897 501.464 335.577 503.295 334.899 503.04C334.222 502.786 334.447 500.506 334.899 499.148C335.351 497.79 336.374 496.917 337.052 497.184C337.73 497.451 337.92 498.76 337.408 500.118Z" fill="white" stroke="#263238" stroke-miterlimit="10"/>
<path d="M323.721 508.884C323.21 510.242 321.89 512.073 321.212 511.806C320.534 511.54 320.748 509.272 321.212 507.927C321.676 506.581 322.687 505.696 323.364 505.962C324.042 506.229 324.221 507.539 323.721 508.884Z" fill="white" stroke="#263238" stroke-miterlimit="10"/>
<path d="M270.03 531.872C269.899 533.303 269.138 535.51 268.413 535.377C267.688 535.243 267.283 533.085 267.402 531.642C267.521 530.199 268.211 529.084 268.936 529.144C269.662 529.205 270.149 530.43 270.03 531.872Z" fill="white" stroke="#263238" stroke-miterlimit="10"/>
<path d="M283.396 548.253C282.065 548.75 279.829 548.932 279.591 548.253C279.353 547.574 281.173 546.252 282.505 545.755C283.836 545.258 285.121 545.428 285.37 546.119C285.62 546.81 284.764 547.756 283.396 548.253Z" fill="white" stroke="#263238" stroke-miterlimit="10"/>
<path d="M336.945 522.609C335.922 523.604 333.948 524.683 333.449 524.149C332.949 523.616 334.103 521.664 335.125 520.669C336.148 519.675 337.397 519.299 337.896 519.833C338.395 520.366 337.979 521.615 336.945 522.609Z" fill="white" stroke="#263238" stroke-miterlimit="10"/>
<path d="M358.599 494.844C358.064 496.19 356.709 497.997 356.031 497.718C355.353 497.439 355.627 495.172 356.162 493.838C356.697 492.504 357.672 491.631 358.35 491.91C359.028 492.189 359.135 493.51 358.599 494.844Z" fill="white" stroke="#263238" stroke-miterlimit="10"/>
<path d="M310.842 540.893C309.82 541.887 307.858 542.966 307.346 542.421C306.835 541.875 308 539.935 309.035 538.941C310.07 537.947 311.294 537.571 311.806 538.105C312.317 538.638 311.877 539.887 310.842 540.893Z" fill="white" stroke="#263238" stroke-miterlimit="10"/>
<path d="M257.591 550.096C256.26 550.581 254.024 550.775 253.786 550.096C253.548 549.417 255.356 548.083 256.7 547.598C258.043 547.113 259.316 547.258 259.554 547.962C259.791 548.665 258.923 549.599 257.591 550.096Z" fill="white" stroke="#263238" stroke-miterlimit="10"/>
<path d="M193.971 553.733C192.556 553.794 190.403 553.284 190.344 552.521C190.285 551.757 192.449 551.102 193.912 551.041C195.374 550.981 196.504 551.526 196.528 552.254C196.551 552.981 195.386 553.672 193.971 553.733Z" fill="white" stroke="#263238" stroke-miterlimit="10"/>
<path d="M188.798 545.355C187.383 545.416 185.231 544.906 185.231 544.142C185.231 543.379 187.324 542.712 188.798 542.651C190.273 542.591 191.39 543.148 191.426 543.864C191.462 544.579 190.213 545.306 188.798 545.355Z" fill="white" stroke="#263238" stroke-miterlimit="10"/>
<path d="M163.944 551.817C162.565 551.441 160.639 550.302 160.829 549.586C161.019 548.871 163.207 548.859 164.61 549.223C166.014 549.586 166.989 550.435 166.763 551.199C166.537 551.963 165.312 552.193 163.944 551.817Z" fill="white" stroke="#263238" stroke-miterlimit="10"/>
<path d="M169.486 534.746C168.428 535.716 166.43 536.734 165.918 536.189C165.407 535.643 166.632 533.764 167.69 532.758C168.749 531.751 169.997 531.448 170.485 532.006C170.972 532.564 170.604 533.788 169.486 534.746Z" fill="white" stroke="#263238" stroke-miterlimit="10"/>
<path d="M230.145 552.072C228.814 552.569 226.578 552.751 226.34 552.072C226.102 551.393 227.91 550.071 229.254 549.574C230.597 549.077 231.87 549.247 232.108 549.938C232.345 550.629 231.477 551.538 230.145 552.072Z" fill="white" stroke="#263238" stroke-miterlimit="10"/>
<path d="M270.886 545.949C269.555 546.446 267.319 546.628 267.081 545.949C266.843 545.27 268.663 543.936 269.995 543.439C271.326 542.942 272.611 543.112 272.86 543.803C273.11 544.494 272.23 545.476 270.886 545.949Z" fill="white" stroke="#263238" stroke-miterlimit="10"/>
<path d="M266.819 508.678C265.488 509.163 263.252 509.357 263.014 508.678C262.776 507.999 264.584 506.666 265.916 506.181C267.248 505.696 268.532 505.841 268.782 506.544C269.031 507.248 268.116 508.181 266.819 508.678Z" fill="white" stroke="#263238" stroke-miterlimit="10"/>
<path d="M203.758 447.267C203.758 447.267 194.459 434.634 195.921 425.164C197.384 415.695 189.286 411.076 187.074 414.143C184.862 417.211 187.133 424.219 182.091 420.8C177.049 417.381 177.62 404.686 173.66 400.261C169.7 395.835 165.811 401.473 166.751 403.643C167.69 405.814 164.979 408.336 160.924 406.068C156.869 403.801 152.79 379.188 144.656 386.742C136.522 394.295 148.664 401.291 144.466 402.116C140.268 402.94 126.819 390.149 123.061 392.622C119.303 395.096 129.387 401.922 126.724 403.389C124.06 404.856 116.449 400.782 114.63 406.529C112.81 412.276 126.521 408.675 126.248 413.974C125.974 419.272 118.054 422.594 119.933 426.923C121.812 431.251 135.393 430.827 134.073 436.064C132.753 441.302 132.467 448.71 139.186 449.559C145.905 450.408 154.835 448.177 152.029 452.821C149.223 457.464 153.67 462.435 161.471 462.278C169.272 462.12 175.361 465.563 173.601 470.304C171.841 475.045 180.034 477.506 184.303 475.578C188.572 473.65 194.423 470.231 195.755 475.069C197.087 479.907 201.296 479.034 205.054 476.56C208.812 474.087 212.998 473.226 214.389 477.009C215.78 480.792 224.854 475.384 224.854 475.384C224.854 475.384 234.641 477.433 236.745 476.475C238.85 475.518 237.471 471.735 233.963 468.922C230.455 466.109 223.034 457.804 222.071 455.646C221.108 453.487 215.685 447.389 214.056 448.904C212.427 450.42 204.65 450.517 203.758 447.267Z" fill="#3ADEC5" stroke="#263238" stroke-miterlimit="10"/>
<path d="M141.148 420.351C139.528 418.833 138.003 417.213 136.582 415.501" stroke="#263238" stroke-miterlimit="10"/>
<path d="M205.363 460.762C202.402 459.477 199.417 458.216 196.552 457.028C183.399 451.572 161.352 437.471 147.177 425.686" stroke="#263238" stroke-miterlimit="10"/>
<path d="M234.819 474.196C234.819 474.196 224.687 469.346 212.677 463.975" stroke="#263238" stroke-miterlimit="10"/>
<path d="M325.731 419.066C325.731 419.066 310.747 417.368 305.146 409.985C299.545 402.601 290.876 405.377 291.59 409.039C292.303 412.7 298.63 415.707 292.886 417.065C287.142 418.423 278.711 409.548 273.003 409.451C267.295 409.354 268.603 415.938 270.744 416.726C272.884 417.514 272.813 421.139 268.508 422.521C264.203 423.904 244.392 410.47 244.225 421.394C244.059 432.318 256.985 428.159 254.785 431.772C252.585 435.385 234.688 436.537 233.915 440.902C233.142 445.267 244.618 442.527 243.845 445.437C243.072 448.347 235.176 451.123 237.899 456.264C240.622 461.405 247.293 449.135 250.813 452.833C254.333 456.531 251.348 464.496 255.57 466.024C259.791 467.552 268.568 457.537 271.362 461.914C274.157 466.291 279.068 471.517 284.134 467.224C289.2 462.932 293.647 455.003 294.967 460.12C296.287 465.236 302.744 465.345 307.846 459.598C312.947 453.851 319.404 451.778 321.474 456.179C323.543 460.58 330.761 456.337 332.259 451.996C333.758 447.655 335.292 441.084 339.537 443.363C343.782 445.643 345.994 442.018 346.779 437.653C347.564 433.288 349.764 429.687 353.308 431.202C356.851 432.718 359.17 422.558 359.17 422.558C359.17 422.558 367.114 416.859 367.863 414.689C368.612 412.519 365.069 411.052 360.728 411.658C356.388 412.264 345.721 412.143 343.592 411.379C341.464 410.615 333.591 410.482 333.556 412.664C333.52 414.846 328.561 420.594 325.731 419.066Z" fill="#3ADEC5" stroke="#263238" stroke-miterlimit="10"/>
<path d="M265.25 446.322C263.115 446.46 260.975 446.46 258.84 446.322" stroke="#263238" stroke-miterlimit="10"/>
<path d="M336.16 426.898C333.294 428.171 330.428 429.481 327.693 430.754C315.124 436.634 290.627 443.145 272.991 445.522" stroke="#263238" stroke-miterlimit="10"/>
<path d="M365.104 414.616C365.104 414.616 354.973 418.702 343.224 423.794" stroke="#263238" stroke-miterlimit="10"/>
<path d="M219.919 119.335C219.919 119.335 217.683 103.149 204.685 98.966C191.688 94.7831 177.929 103.913 171.959 112.024C165.99 120.135 165.3 129.483 168.82 134.927C172.34 140.371 182.472 150.447 195.493 152.932C208.515 155.418 215.091 148.313 217.897 141.96C221.173 134.899 221.889 126.883 219.919 119.335V119.335Z" fill="#3ADEC5" stroke="#263238" stroke-miterlimit="10"/>
<path d="M216.779 120.087C216.779 120.087 214.805 105.853 203.377 102.179C191.949 98.5053 179.856 106.532 174.611 113.661C169.367 120.79 168.749 129.011 171.852 133.8C174.956 138.589 183.851 147.44 195.291 149.562C206.731 151.683 212.522 145.512 214.995 139.923C217.86 133.731 218.492 126.707 216.779 120.087V120.087Z" fill="white"/>
<path d="M196.373 112.158C196.373 112.158 197.206 108.957 194.875 107.308C192.544 105.659 186.551 107.647 180.462 112.521C174.373 117.395 173.47 125.858 173.91 127.992C174.35 130.126 180.973 129.399 180.973 129.399L181.889 131.654C181.889 131.654 178.524 135.291 178.809 137.061C179.094 138.831 187.668 144.433 195.457 146.337C203.246 148.24 207.623 143.487 207.349 141.875C206.962 140.329 206.457 138.817 205.839 137.352L206.35 135.109C206.35 135.109 211.392 135.194 212.843 132.806C214.294 130.417 213.2 120.608 210.596 115.431C207.991 110.254 202.045 108.872 200.928 109.49C199.81 110.108 198.668 112.824 198.668 112.824C197.869 112.753 197.09 112.526 196.373 112.158Z" fill="#3ADEC5"/>
<path d="M201.439 119.905C201.439 119.905 198.954 117.614 199.929 116.183C200.904 114.752 202.783 114.461 201.712 112.545C200.642 110.63 195.767 110.678 194.958 111.624C194.149 112.57 196.04 113.091 196.016 114.534C195.993 115.977 195.35 116.777 192.449 118.014C189.547 119.25 186.991 124.5 186.337 126.416C185.682 128.332 184.707 129.605 182.983 128.768C181.259 127.932 179.701 127.434 179.82 129.69C179.939 131.945 182.567 135.509 183.673 134.891C184.779 134.273 184.327 133.448 184.957 133.46C185.587 133.472 192.485 135.994 195.315 136.2C198.145 136.407 199.905 134.188 200.999 134.855C202.093 135.521 201.57 139.038 203.294 139.219C205.018 139.401 209.002 136.588 208.241 134.806C207.48 133.024 206.184 135.412 204.341 132.66C202.497 129.908 204.162 124.306 203.413 122.039C202.664 119.772 201.439 119.905 201.439 119.905Z" fill="white"/>
<path d="M190.974 114.692C191.961 115.734 193.043 117.723 192.52 118.244C191.997 118.765 190.07 117.601 189.083 116.559C188.096 115.516 187.716 114.267 188.239 113.746C188.762 113.224 189.987 113.649 190.974 114.692Z" fill="white"/>
<path d="M204.234 117.723C203.128 118.632 201.082 119.541 200.666 118.935C200.25 118.329 201.522 116.51 202.628 115.613C203.734 114.716 205.006 114.401 205.446 115.007C205.886 115.613 205.339 116.813 204.234 117.723Z" fill="white"/>
<path d="M186.527 137.777C186.907 136.394 188.061 134.442 188.762 134.649C189.464 134.855 189.44 137.073 189.048 138.516C188.655 139.959 187.787 140.868 187.086 140.662C186.384 140.456 186.134 139.171 186.527 137.777Z" fill="white"/>
<path d="M191.545 139.025C191.747 137.595 192.627 135.497 193.341 135.606C194.054 135.715 194.352 137.959 194.161 139.389C193.971 140.82 193.222 141.911 192.496 141.814C191.771 141.717 191.355 140.517 191.545 139.025Z" fill="white"/>
<path d="M198.371 139.704C197.776 138.395 197.408 136.152 198.062 135.837C198.716 135.521 200.167 137.267 200.761 138.577C201.356 139.886 201.308 141.208 200.642 141.523C199.976 141.838 198.966 141.026 198.371 139.704Z" fill="white"/>
<path d="M206.897 122.33C205.589 122.912 203.33 123.227 203.092 122.548C202.854 121.869 204.543 120.439 205.851 119.869C207.159 119.299 208.443 119.384 208.729 120.063C209.014 120.742 208.193 121.748 206.897 122.33Z" fill="white"/>
<path d="M206.79 129.483C205.363 129.556 203.223 129.059 203.163 128.271C203.104 127.483 205.244 126.828 206.731 126.755C208.217 126.683 209.323 127.24 209.347 127.968C209.371 128.695 208.205 129.423 206.79 129.483Z" fill="white"/>
<path d="M187.133 118.317C188.12 119.359 189.202 121.348 188.679 121.869C188.156 122.391 186.301 121.227 185.254 120.196C184.208 119.165 183.887 117.892 184.398 117.371C184.91 116.85 186.146 117.286 187.133 118.317Z" fill="white"/>
<path d="M183.685 123.542C184.874 124.355 186.325 126.076 185.92 126.695C185.516 127.313 183.399 126.574 182.222 125.773C181.045 124.973 180.414 123.809 180.819 123.191C181.223 122.572 182.555 122.754 183.685 123.542Z" fill="white"/>
<path d="M292.886 211.87C292.886 211.87 306.074 204.91 305.681 192.046C305.289 179.182 293.267 169.713 284.479 166.876C275.691 164.038 267.462 166.281 263.882 171.083C260.303 175.884 254.737 187.996 256.593 200.363C258.448 212.731 266.546 216.428 272.86 216.986C279.919 217.745 287.013 215.933 292.886 211.87V211.87Z" fill="#3ADEC5" stroke="#263238" stroke-miterlimit="10"/>
<path d="M291.269 209.287C291.269 209.287 302.875 203.225 302.53 191.864C302.185 180.504 291.602 172.235 283.884 169.737C276.166 167.239 268.924 169.203 265.773 173.435C262.622 177.666 257.734 188.312 259.375 199.187C261.016 210.063 268.116 213.3 273.645 213.737C279.851 214.431 286.098 212.854 291.269 209.287V209.287Z" fill="white"/>
<path d="M291.828 188.675C291.828 188.675 294.824 188.445 295.526 185.863C296.228 183.28 292.672 178.515 286.631 174.611C280.59 170.707 273.027 172.477 271.362 173.508C269.697 174.538 272.325 180.237 272.325 180.237L270.66 181.728C270.66 181.728 266.522 179.849 265.083 180.649C263.644 181.449 261.516 190.797 262.253 198.375C262.99 205.953 268.425 208.354 269.709 207.602C270.92 206.787 272.066 205.875 273.134 204.874L275.203 204.643C275.203 204.643 276.678 209.154 279.163 209.724C281.648 210.293 289.735 206.305 293.433 202.449C297.131 198.593 296.442 192.749 295.562 192.01C294.682 191.27 291.994 191.015 291.994 191.015C291.795 190.253 291.738 189.459 291.828 188.675V188.675Z" fill="#3ADEC5"/>
<path d="M286.702 195.586C286.702 195.586 287.892 192.664 289.426 193.089C290.96 193.513 291.804 195.114 293.112 193.562C294.42 192.01 292.886 187.693 291.828 187.269C290.769 186.845 290.912 188.675 289.663 189.1C288.415 189.524 287.535 189.185 285.608 187.014C283.682 184.844 278.366 184.141 276.523 184.141C274.68 184.141 273.289 183.668 273.479 181.874C273.669 180.079 273.622 178.539 271.731 179.34C269.84 180.14 267.569 183.559 268.449 184.359C269.329 185.159 269.876 184.505 270.066 185.074C270.256 185.644 270.197 192.555 270.875 195.138C271.552 197.72 274.014 198.618 273.776 199.794C273.538 200.97 270.363 201.576 270.732 203.176C271.1 204.777 274.739 207.468 276.036 206.244C277.332 205.019 274.846 204.595 276.678 202.109C278.509 199.624 283.813 199.381 285.501 198.023C287.19 196.666 286.702 195.586 286.702 195.586Z" fill="white"/>
<path d="M288.01 184.638C287.416 185.85 286.036 187.414 285.43 187.063C284.823 186.711 285.24 184.638 285.822 183.498C286.405 182.359 287.38 181.57 287.975 181.874C288.569 182.177 288.593 183.438 288.01 184.638Z" fill="white"/>
<path d="M289.521 197.393C288.403 196.678 287 195.138 287.356 194.556C287.713 193.974 289.735 194.556 290.805 195.283C291.875 196.011 292.541 197.041 292.184 197.623C291.828 198.205 290.579 198.096 289.521 197.393Z" fill="white"/>
<path d="M266.843 187.73C268.151 187.657 270.185 188.093 270.22 188.772C270.256 189.451 268.306 190.143 266.986 190.215C265.666 190.288 264.608 189.803 264.536 189.124C264.465 188.445 265.535 187.802 266.843 187.73Z" fill="white"/>
<path d="M267.319 192.652C268.603 192.386 270.672 192.531 270.803 193.198C270.934 193.865 269.091 194.823 267.795 195.089C266.498 195.356 265.416 195.017 265.226 194.338C265.036 193.659 266.023 192.858 267.319 192.652Z" fill="white"/>
<path d="M268.817 198.896C269.757 197.963 271.576 196.944 272.04 197.429C272.504 197.914 271.457 199.745 270.518 200.679C269.578 201.612 268.425 201.964 267.961 201.479C267.497 200.994 267.878 199.83 268.817 198.896Z" fill="white"/>
<path d="M286.334 201.139C285.442 200.157 284.49 198.278 284.99 197.817C285.489 197.357 287.237 198.472 288.129 199.454C289.021 200.436 289.318 201.612 288.843 202.085C288.367 202.558 287.226 202.146 286.334 201.139Z" fill="white"/>
<path d="M280.15 203.261C279.662 202.049 279.425 199.927 280.055 199.624C280.685 199.321 281.922 201.042 282.433 202.291C282.945 203.54 282.814 204.716 282.183 205.007C281.553 205.298 280.649 204.51 280.15 203.261Z" fill="white"/>
<path d="M283.718 182.334C283.135 183.547 281.755 185.099 281.149 184.759C280.542 184.42 280.947 182.334 281.541 181.122C282.136 179.909 283.087 179.206 283.694 179.509C284.3 179.812 284.312 181.134 283.718 182.334Z" fill="white"/>
<path d="M278.188 180.904C277.855 182.201 276.82 184.02 276.178 183.85C275.536 183.68 275.5 181.57 275.833 180.213C276.166 178.855 276.963 178.006 277.605 178.176C278.247 178.345 278.521 179.606 278.188 180.904Z" fill="white"/>
<path d="M230.062 373.999C211.859 373.709 193.75 371.267 176.098 366.724C133.882 355.812 107.257 336.279 106.139 335.455C100.7 331.435 97.0501 325.378 95.9919 318.614C94.9338 311.851 96.554 304.936 100.496 299.391C104.439 293.845 110.38 290.124 117.014 289.045C123.647 287.966 130.429 289.618 135.868 293.638C136.391 294.013 157.404 308.975 190.57 317.171C234.284 327.974 277.974 322.518 320.403 300.949C326.413 297.894 333.367 297.398 339.735 299.571C346.103 301.743 351.364 306.406 354.36 312.534C357.356 318.661 357.842 325.751 355.711 332.244C353.581 338.737 349.007 344.1 342.998 347.155C301.531 368.167 262.8 374.52 230.062 373.999Z" fill="#3ADEC5" stroke="#263238" stroke-miterlimit="10"/>
<path d="M350.644 329.95C349.714 333.025 348.18 335.875 346.136 338.326C344.092 340.778 341.579 342.779 338.752 344.209C321.081 353.274 302.347 360.001 283.004 364.227" stroke="#263238" stroke-miterlimit="10"/>
<path d="M350.049 314.164C350.919 316.394 351.452 318.744 351.631 321.136" stroke="#263238" stroke-miterlimit="10"/>
<path d="M152.338 350.987C150.332 350.114 148.406 349.241 146.559 348.368" stroke="#263238" stroke-miterlimit="10"/>
<path d="M274.061 365.96C244.403 371.066 214.026 369.803 184.874 362.25C175.575 359.832 166.439 356.802 157.523 353.181" stroke="#263238" stroke-miterlimit="10"/>
<path opacity="0.2" d="M138.924 298.136C138.924 298.136 142.385 304.089 138.211 315.365C134.037 326.64 132.265 328.423 135.333 328.483C138.401 328.544 143.931 319.548 144.953 310.491C145.976 301.434 142.064 297.76 138.924 298.136Z" fill="black"/>
<path opacity="0.2" d="M162.791 309.048C162.791 309.048 166.251 315.001 162.066 326.277C157.88 337.553 156.12 339.347 159.188 339.396C162.256 339.444 167.785 330.46 168.82 321.403C169.855 312.346 165.907 308.587 162.791 309.048Z" fill="black"/>
<path opacity="0.2" d="M188.441 318.493C188.441 318.493 191.902 324.446 187.716 335.722C183.53 346.998 181.77 348.78 184.838 348.828C187.906 348.877 193.436 339.893 194.47 330.836C195.505 321.779 191.569 318.081 188.441 318.493Z" fill="black"/>
<path opacity="0.2" d="M213.771 323.197C213.771 323.197 217.909 328.69 215.055 340.39C212.201 352.09 210.607 354.078 213.711 353.727C216.815 353.375 221.215 343.821 221.191 334.703C221.167 325.586 216.827 322.385 213.771 323.197Z" fill="black"/>
<path opacity="0.2" d="M238.589 324.882C238.589 324.882 243.214 329.963 241.478 341.857C239.742 353.751 238.339 355.921 241.395 355.291C244.451 354.66 247.935 344.706 247.055 335.625C246.175 326.544 241.561 323.815 238.589 324.882Z" fill="black"/>
<path opacity="0.2" d="M267.961 323.355C267.961 323.355 273.3 327.635 273.396 339.699C273.491 351.763 272.432 354.078 275.358 353.036C278.283 351.993 280.209 341.529 277.962 332.703C275.714 323.876 270.732 321.839 267.961 323.355Z" fill="black"/>
<path opacity="0.2" d="M298.273 315.231C298.273 315.231 304.124 318.735 305.789 330.678C307.453 342.621 306.728 345.07 309.475 343.578C312.222 342.087 312.781 331.527 309.404 323.076C306.026 314.625 300.818 313.34 298.273 315.231Z" fill="black"/>
<path d="M154.609 149.174C141.755 148.955 131.183 158.376 130.993 170.198C130.802 182.019 141.077 191.779 153.932 192.022C166.787 192.264 177.346 182.819 177.537 170.998C177.727 159.176 167.453 149.38 154.609 149.174ZM152.314 190.227C141.457 190.046 132.776 182.104 132.931 172.465C133.086 162.826 142.004 155.175 152.861 155.357C163.719 155.539 172.388 163.493 172.245 173.12C172.102 182.747 163.16 190.397 152.314 190.227Z" fill="white" stroke="#263238" stroke-linecap="round" stroke-linejoin="round"/>
<path d="M165.431 152.132L164.23 153.89" stroke="#263238" stroke-linecap="round" stroke-linejoin="round"/>
<path d="M171.305 156.667L170.271 157.697" stroke="#263238" stroke-linecap="round" stroke-linejoin="round"/>
<path d="M176.133 163.566L174.373 164.717" stroke="#263238" stroke-linecap="round" stroke-linejoin="round"/>
<path d="M155.882 149.61L155.704 151.38" stroke="#263238" stroke-linecap="round" stroke-linejoin="round"/>
<path d="M145.548 151.065L145.524 152.096" stroke="#263238" stroke-linecap="round" stroke-linejoin="round"/>
<path d="M177.12 174.987L175.087 174.805" stroke="#263238" stroke-linecap="round" stroke-linejoin="round"/>
<path d="M160.484 189.221L161.328 191.015" stroke="#263238" stroke-linecap="round" stroke-linejoin="round"/>
<path d="M170.449 183.753L171.733 184.662" stroke="#263238" stroke-linecap="round" stroke-linejoin="round"/>
<path d="M136.439 157.431L137.01 157.879" stroke="#263238" stroke-linecap="round" stroke-linejoin="round"/>
<path d="M215.138 292.486C231.109 289.358 241.799 274.905 239.017 260.222C236.234 245.539 221.06 236.179 205.09 239.307C189.119 242.436 178.452 256.912 181.223 271.571C183.994 286.229 199.144 295.614 215.138 292.486ZM207.551 241.078C221.036 238.435 233.796 245.927 236.091 257.943C238.386 269.958 229.254 281.731 215.78 284.374C202.307 287.018 189.547 279.525 187.24 267.521C184.933 255.518 194.078 243.721 207.551 241.078Z" fill="white" stroke="#263238" stroke-linecap="round" stroke-linejoin="round"/>
<path d="M200.999 291.673L202.022 289.188" stroke="#263238" stroke-linecap="round" stroke-linejoin="round"/>
<path d="M192.568 287.612L193.59 286.072" stroke="#263238" stroke-linecap="round" stroke-linejoin="round"/>
<path d="M184.838 280.349L186.729 278.458" stroke="#263238" stroke-linecap="round" stroke-linejoin="round"/>
<path d="M213.461 292.28L213.224 290.037" stroke="#263238" stroke-linecap="round" stroke-linejoin="round"/>
<path d="M225.876 287.745L225.638 286.46" stroke="#263238" stroke-linecap="round" stroke-linejoin="round"/>
<path d="M180.724 266.479L183.28 266.175" stroke="#263238" stroke-linecap="round" stroke-linejoin="round"/>
<path d="M197.693 244.46L196.195 242.472" stroke="#263238" stroke-linecap="round" stroke-linejoin="round"/>
<path d="M186.753 253.857L184.921 253.069" stroke="#263238" stroke-linecap="round" stroke-linejoin="round"/>
<path d="M235.532 277.463L234.7 277.051" stroke="#263238" stroke-linecap="round" stroke-linejoin="round"/>
<path d="M337.813 380.316C353.783 377.188 364.474 362.747 361.691 348.065C358.909 333.382 343.735 324.022 327.776 327.15C311.818 330.278 301.127 344.718 303.898 359.401C306.668 374.084 321.854 383.456 337.813 380.316ZM330.238 328.908C343.711 326.265 356.471 333.818 358.778 345.773C361.085 357.728 351.928 369.573 338.455 372.217C324.982 374.86 312.222 367.306 309.915 355.351C307.608 343.397 316.753 331.563 330.238 328.908Z" fill="white" stroke="#263238" stroke-linecap="round" stroke-linejoin="round"/>
<path d="M323.674 379.503L324.696 377.018" stroke="#263238" stroke-linecap="round" stroke-linejoin="round"/>
<path d="M315.242 375.442L316.265 373.914" stroke="#263238" stroke-linecap="round" stroke-linejoin="round"/>
<path d="M307.513 368.191L309.404 366.3" stroke="#263238" stroke-linecap="round" stroke-linejoin="round"/>
<path d="M336.136 380.11L335.898 377.879" stroke="#263238" stroke-linecap="round" stroke-linejoin="round"/>
<path d="M348.551 375.575L348.313 374.29" stroke="#263238" stroke-linecap="round" stroke-linejoin="round"/>
<path d="M303.398 354.321L305.955 354.006" stroke="#263238" stroke-linecap="round" stroke-linejoin="round"/>
<path d="M320.368 332.303L318.869 330.314" stroke="#263238" stroke-linecap="round" stroke-linejoin="round"/>
<path d="M309.427 341.699L307.596 340.911" stroke="#263238" stroke-linecap="round" stroke-linejoin="round"/>
<path d="M358.207 365.294L357.375 364.893" stroke="#263238" stroke-linecap="round" stroke-linejoin="round"/>
<path d="M361.358 252.608C361.358 254.633 358.492 256.367 358.159 258.307C357.827 260.247 359.908 262.902 359.277 264.769C358.647 266.636 355.424 267.412 354.521 269.17C353.617 270.928 354.794 274.02 353.617 275.657C352.44 277.294 349.146 276.954 347.742 278.348C346.339 279.743 346.553 283.089 344.924 284.241C343.295 285.393 340.298 284.071 338.526 284.956C336.754 285.841 335.946 289.079 334.067 289.673C332.188 290.267 329.726 288.036 327.764 288.315C325.802 288.594 324.066 291.419 322.08 291.394C320.094 291.37 318.394 288.472 316.503 288.133C314.612 287.793 311.996 289.915 310.165 289.273C308.333 288.63 307.56 285.344 305.848 284.423C304.136 283.501 301.032 284.702 299.474 283.501C297.916 282.301 298.202 278.943 296.846 277.512C295.49 276.081 292.184 276.299 291.067 274.638C289.949 272.977 291.233 269.922 290.365 268.128C289.497 266.333 286.322 265.484 285.739 263.569C285.156 261.653 287.333 259.143 287.059 257.143C286.786 255.142 284.015 253.372 284.051 251.347C284.086 249.322 286.916 247.589 287.237 245.661C287.559 243.733 285.501 241.066 286.12 239.198C286.738 237.331 289.984 236.543 290.876 234.797C291.768 233.051 290.615 229.887 291.78 228.298C292.945 226.71 296.251 227.001 297.655 225.619C299.058 224.237 298.844 220.866 300.473 219.726C302.102 218.587 305.111 219.896 306.871 219.011C308.631 218.126 309.463 214.889 311.342 214.295C313.221 213.7 315.682 215.919 317.633 215.64C319.583 215.362 321.331 212.537 323.317 212.573C325.303 212.609 327.003 215.495 328.906 215.834C330.809 216.174 333.413 214.052 335.244 214.622C337.076 215.192 337.837 218.562 339.561 219.472C341.285 220.381 344.318 219.193 345.923 220.393C347.528 221.594 347.195 224.94 348.563 226.371C349.93 227.801 353.213 227.583 354.342 229.244C355.472 230.905 354.176 233.973 355.032 235.767C355.888 237.562 359.087 238.41 359.67 240.326C360.252 242.242 358.064 244.751 358.338 246.74C358.611 248.728 361.382 250.583 361.358 252.608Z" fill="#3ADEC5" stroke="#263238" stroke-miterlimit="10"/>
<path d="M361.168 250.365C361.168 252.39 358.302 254.124 357.969 256.051C357.636 257.979 359.717 260.647 359.099 262.514C358.481 264.381 355.234 265.169 354.342 266.915C353.45 268.661 354.604 271.826 353.427 273.414C352.249 275.002 348.967 274.711 347.564 276.093C346.161 277.476 346.375 280.846 344.746 281.986C343.117 283.126 340.108 281.816 338.348 282.701C336.588 283.586 335.756 286.836 333.877 287.418C331.998 288 329.536 285.793 327.586 286.072C325.636 286.351 323.888 289.176 321.902 289.139C319.916 289.103 318.215 286.217 316.313 285.89C314.41 285.563 311.806 287.66 309.974 287.03C308.143 286.399 307.382 283.089 305.658 282.18C303.933 281.271 300.901 282.447 299.296 281.258C297.69 280.07 298.023 276.7 296.656 275.269C295.288 273.838 292.006 274.056 290.876 272.395C289.747 270.734 291.043 267.667 290.175 265.872C289.307 264.078 286.132 263.241 285.549 261.314C284.966 259.386 287.154 256.9 286.881 254.9C286.607 252.899 283.836 251.129 283.86 249.104C283.884 247.079 286.726 245.346 287.059 243.406C287.392 241.466 285.311 238.81 285.941 236.943C286.572 235.076 289.794 234.3 290.698 232.542C291.602 230.784 290.424 227.692 291.602 226.055C292.779 224.419 296.073 224.758 297.476 223.364C298.879 221.969 298.665 218.623 300.295 217.471C301.924 216.319 304.92 217.641 306.68 216.768C308.44 215.895 309.273 212.634 311.152 212.052C313.031 211.47 315.492 213.676 317.454 213.397C319.416 213.119 321.153 210.294 323.138 210.318C325.124 210.342 326.825 213.24 328.716 213.579C330.606 213.919 333.223 211.797 335.054 212.44C336.885 213.082 337.658 216.368 339.371 217.289C341.083 218.211 344.187 217.023 345.745 218.211C347.302 219.399 347.017 222.77 348.373 224.2C349.728 225.631 353.034 225.413 354.152 227.074C355.27 228.735 353.986 231.79 354.854 233.597C355.722 235.403 358.897 236.228 359.479 238.144C360.062 240.059 357.886 242.569 358.159 244.57C358.433 246.57 361.204 248.34 361.168 250.365Z" fill="#3ADEC5" stroke="#263238" stroke-miterlimit="10"/>
<path d="M356.887 250.292C356.887 252.099 354.342 253.639 354.045 255.36C353.748 257.082 355.603 259.446 355.044 261.095C354.485 262.744 351.619 263.52 350.799 265.011C349.978 266.503 351.036 269.376 350.002 270.795C348.967 272.213 346.03 272.007 344.781 273.22C343.533 274.432 343.699 277.451 342.272 278.47C340.845 279.488 338.146 278.312 336.588 279.1C335.03 279.888 334.281 282.738 332.604 283.295C330.928 283.853 328.751 281.84 327.015 282.083C325.279 282.325 323.721 284.847 321.961 284.811C320.201 284.774 318.679 282.216 316.99 281.913C315.302 281.61 312.983 283.501 311.354 282.932C309.725 282.362 309.047 279.44 307.513 278.603C305.979 277.767 303.232 278.858 301.852 277.791C300.473 276.724 300.723 273.741 299.474 272.468C298.225 271.195 295.336 271.365 294.337 269.91C293.338 268.455 294.48 265.715 293.718 264.114C292.957 262.514 290.151 261.762 289.604 260.065C289.057 258.367 291.019 256.124 290.793 254.354C290.567 252.584 288.094 250.996 288.117 249.201C288.141 247.407 290.662 245.855 290.96 244.133C291.257 242.411 289.414 240.047 289.961 238.386C290.508 236.725 293.397 236.034 294.206 234.47C295.015 232.906 293.968 230.105 295.015 228.699C296.061 227.292 298.986 227.547 300.235 226.274C301.484 225.001 301.317 222.054 302.744 221.036C304.171 220.017 306.859 221.181 308.428 220.405C309.998 219.629 310.724 216.768 312.4 216.21C314.077 215.653 316.253 217.653 318.001 217.423C319.749 217.192 321.283 214.658 323.055 214.683C324.827 214.707 326.337 217.289 328.014 217.58C329.691 217.871 332.022 216.004 333.651 216.574C335.28 217.144 335.97 220.066 337.492 220.89C339.014 221.715 341.773 220.648 343.152 221.715C344.532 222.782 344.341 225.764 345.531 227.037C346.72 228.311 349.669 228.141 350.68 229.596C351.69 231.051 350.525 233.791 351.298 235.391C352.071 236.992 354.866 237.731 355.413 239.441C355.96 241.15 353.986 243.369 354.223 245.152C354.461 246.934 356.923 248.486 356.887 250.292Z" fill="white"/>
<path d="M325.576 241.926C325.576 241.926 327.479 233.56 326.646 230.36C325.814 227.159 317.407 226.443 314.041 230.578C310.676 234.712 317.799 243.539 319.809 245.636C321.818 247.734 323.198 247.504 325.576 241.926Z" fill="#3ADEC5"/>
<path d="M328.668 254.997C328.668 254.997 335.434 260.137 338.633 260.647C341.832 261.156 345.863 253.578 343.485 248.777C341.107 243.975 330.333 247.091 327.645 248.134C324.958 249.177 324.613 250.547 328.668 254.997Z" fill="#3ADEC5"/>
<path d="M315.682 249.698C315.682 249.698 307.358 250.983 304.742 252.948C302.126 254.912 304.576 263.156 309.594 264.818C314.612 266.479 320.023 256.476 321.2 253.796C322.377 251.117 321.628 249.904 315.682 249.698Z" fill="#3ADEC5"/>
<path d="M174.528 247.673C175.218 246.97 175.919 246.255 175.908 245.697C176.191 244.855 176.161 243.936 175.824 243.115C175.408 242.302 172.982 243.115 172.804 242.363C172.752 241.535 172.969 240.712 173.422 240.023C173.803 239.247 174.457 236.895 174.195 236.385C173.934 235.876 173.957 235.719 173.006 235.44C172.055 235.161 169.783 236.264 169.296 235.67C168.874 234.998 168.725 234.185 168.88 233.403C168.88 232.591 168.963 231.839 168.487 231.475C167.658 231.102 166.751 230.944 165.847 231.014C164.809 231.059 163.773 230.885 162.803 230.505C162.121 230.06 161.619 229.38 161.388 228.589C161.079 227.898 160.769 227.183 160.139 226.953C159.177 226.817 158.198 226.883 157.261 227.147C156.177 227.417 155.054 227.491 153.944 227.365C153.065 227.144 152.271 226.663 151.66 225.983C151.132 225.38 150.435 224.956 149.663 224.77C149.028 224.785 148.402 224.925 147.819 225.182L146.844 225.57C146.488 225.716 146.131 225.874 145.774 226.007C145.068 226.298 144.322 226.474 143.562 226.528C142.551 226.51 141.557 226.265 140.649 225.813C139.858 225.401 138.979 225.197 138.092 225.219C137.918 225.248 137.747 225.292 137.581 225.352C136.882 225.676 136.223 226.083 135.619 226.565C134.888 227.145 134.089 227.63 133.24 228.007L132.741 228.165C131.667 228.359 130.568 228.359 129.494 228.165C128.545 227.962 127.565 227.962 126.617 228.165C125.821 228.579 125.142 229.192 124.643 229.947C124.058 230.773 123.308 231.463 122.443 231.972C122.289 232.053 122.13 232.122 121.967 232.178C121.034 232.484 120.067 232.672 119.089 232.736C118.283 232.796 117.486 232.942 116.711 233.172C116.547 233.23 116.392 233.307 116.247 233.403C115.643 233.921 115.225 234.629 115.058 235.416C114.836 236.3 114.375 237.103 113.726 237.731C113.136 238.182 112.477 238.53 111.776 238.762L110.694 239.138L109.683 239.501C109.1 239.673 108.561 239.971 108.101 240.374C107.912 240.675 107.785 241.012 107.73 241.365C107.675 241.717 107.692 242.078 107.78 242.424C107.939 243.227 107.821 244.062 107.447 244.788C106.96 245.54 103.677 245.818 102.69 246.4C101.703 246.982 102.786 248.352 102.56 248.91C102.334 249.468 103.059 249.638 103.463 250.292C103.954 250.907 104.208 251.683 104.177 252.475C104.01 253.239 102.167 253.833 101.466 254.56C100.764 255.288 101.168 256.161 101.18 256.718C101.192 257.276 101.87 257.725 102.595 258.234C103.321 258.743 104.106 259.313 104.296 260.04C104.486 260.768 103.202 260.756 102.809 261.568C102.587 262.545 102.709 263.571 103.154 264.466C103.416 264.963 104.343 265.266 105.319 265.545C106.227 265.728 107.075 266.145 107.78 266.757C108.198 267.436 108.347 268.251 108.196 269.037C108.196 269.837 108.113 270.589 108.565 270.953C109.398 271.328 110.308 271.49 111.217 271.425C112.254 271.378 113.29 271.547 114.261 271.922C114.938 272.381 115.442 273.061 115.688 273.85C115.985 274.529 116.306 275.245 116.937 275.463C117.897 275.614 118.878 275.556 119.814 275.293C120.898 275.012 122.022 274.934 123.132 275.063C124.001 275.3 124.79 275.773 125.415 276.433C125.93 277.053 126.633 277.48 127.413 277.645C128.044 277.641 128.667 277.504 129.245 277.245L130.22 276.857L131.242 276.445C131.964 276.15 132.726 275.97 133.502 275.911C134.511 275.93 135.505 276.17 136.415 276.615C137.204 277.032 138.083 277.24 138.972 277.221C139.142 277.194 139.31 277.149 139.471 277.088C140.176 276.768 140.839 276.361 141.445 275.875C142.2 275.302 143.018 274.821 143.883 274.444L144.371 274.287C145.441 274.093 146.536 274.093 147.605 274.287C148.558 274.496 149.543 274.496 150.495 274.287C151.286 273.866 151.964 273.254 152.469 272.504C153.052 271.673 153.807 270.981 154.681 270.48L155.145 270.249C156.088 269.949 157.061 269.758 158.046 269.679C158.852 269.628 159.65 269.486 160.425 269.255C160.583 269.2 160.734 269.126 160.876 269.037C161.474 268.513 161.89 267.807 162.066 267.024C162.294 266.143 162.755 265.342 163.398 264.708C163.999 264.243 164.675 263.886 165.395 263.654L166.442 263.278L167.453 262.938C168.033 262.755 168.571 262.454 169.034 262.053C169.218 261.75 169.341 261.413 169.394 261.061C169.447 260.709 169.43 260.349 169.343 260.004C169.183 259.199 169.305 258.362 169.688 257.64C170.365 256.833 171.194 256.173 172.126 255.7C173.042 255.154 173.993 254.584 174.219 254.027C174.481 253.159 174.426 252.225 174.064 251.396C173.636 250.692 172.78 250.729 172.875 249.953C173.218 249.057 173.789 248.27 174.528 247.673V247.673Z" fill="#3ADEC5" stroke="#263238" stroke-miterlimit="10"/>
<path d="M174.338 245.406C175.039 244.703 175.741 243.975 175.717 243.43C175.693 242.884 175.028 242.411 174.314 241.902C173.601 241.393 172.792 240.823 172.614 240.096C172.56 239.267 172.777 238.444 173.232 237.756C173.624 236.98 174.017 236.167 173.755 235.67C173.494 235.173 172.566 234.882 171.591 234.591C170.681 234.411 169.833 233.993 169.129 233.379C168.708 232.706 168.558 231.894 168.713 231.111C168.713 230.299 168.796 229.547 168.333 229.184C167.499 228.81 166.588 228.651 165.681 228.723C164.646 228.768 163.614 228.595 162.648 228.214C161.964 227.769 161.458 227.09 161.221 226.298C160.912 225.607 160.615 224.891 159.973 224.661C159.014 224.527 158.039 224.593 157.107 224.855C156.018 225.127 154.891 225.201 153.777 225.073C152.903 224.843 152.111 224.363 151.494 223.691C150.965 223.088 150.268 222.665 149.496 222.479C148.865 222.493 148.243 222.633 147.665 222.891L146.678 223.279C146.321 223.424 145.964 223.582 145.608 223.715C144.902 224.008 144.156 224.184 143.396 224.237C142.388 224.22 141.398 223.976 140.494 223.521C139.703 223.11 138.825 222.906 137.937 222.927C137.763 222.953 137.591 222.998 137.426 223.061C136.725 223.379 136.065 223.786 135.464 224.273C134.733 224.853 133.934 225.338 133.086 225.716L132.598 225.873C131.524 226.068 130.425 226.068 129.352 225.873C128.403 225.665 127.422 225.665 126.474 225.873C125.677 226.29 124.994 226.903 124.488 227.656C123.906 228.485 123.156 229.175 122.288 229.681C122.136 229.764 121.977 229.833 121.812 229.887C120.878 230.188 119.912 230.376 118.934 230.444C118.129 230.505 117.332 230.652 116.556 230.881C116.391 230.933 116.234 231.011 116.092 231.111C115.488 231.63 115.07 232.337 114.903 233.124C114.687 234.007 114.224 234.807 113.571 235.428C112.989 235.887 112.333 236.239 111.633 236.47L110.539 236.846L109.54 237.21C108.954 237.382 108.411 237.68 107.947 238.083C107.76 238.385 107.636 238.722 107.581 239.074C107.525 239.426 107.541 239.786 107.625 240.132C107.796 240.935 107.678 241.774 107.293 242.496C106.636 243.297 105.827 243.952 104.914 244.424C103.999 244.994 103.059 245.564 102.821 246.121C102.583 246.679 102.988 247.334 103.404 248.001C103.897 248.614 104.147 249.392 104.106 250.183C103.765 251.067 103.208 251.848 102.488 252.45C101.81 253.142 101.109 253.869 101.109 254.415C101.109 254.96 101.799 255.433 102.536 255.942C103.273 256.452 104.034 257.021 104.224 257.749C104.287 258.578 104.069 259.404 103.606 260.089C103.226 260.877 102.833 261.677 103.083 262.174C103.333 262.671 104.272 262.975 105.247 263.253C106.157 263.433 107.005 263.851 107.709 264.466C108.125 265.145 108.278 265.958 108.137 266.745C108.077 267.546 108.042 268.297 108.505 268.661C109.336 269.03 110.241 269.192 111.145 269.134C112.183 269.085 113.219 269.254 114.19 269.631C114.869 270.084 115.377 270.76 115.629 271.547C115.914 272.238 116.235 272.953 116.818 273.171C117.778 273.323 118.759 273.265 119.696 273.002C120.779 272.723 121.902 272.641 123.013 272.759C123.882 273.002 124.671 273.48 125.297 274.141C125.811 274.762 126.514 275.188 127.294 275.354C127.925 275.349 128.548 275.213 129.126 274.954L130.101 274.566L131.123 274.153C131.849 273.857 132.615 273.677 133.395 273.62C134.4 273.639 135.39 273.879 136.296 274.323C137.088 274.733 137.965 274.941 138.853 274.929C139.027 274.901 139.198 274.856 139.364 274.796C140.067 274.474 140.73 274.066 141.338 273.584C142.074 273.013 142.872 272.533 143.717 272.153L144.216 271.995C145.286 271.801 146.381 271.801 147.451 271.995C148.403 272.204 149.388 272.204 150.34 271.995C151.13 271.578 151.805 270.965 152.303 270.213C152.889 269.384 153.643 268.693 154.514 268.188C154.665 268.11 154.82 268.041 154.978 267.982C155.917 267.682 156.887 267.491 157.868 267.412C158.674 267.361 159.471 267.219 160.246 266.988C160.41 266.933 160.567 266.856 160.71 266.757C161.306 266.238 161.723 265.536 161.899 264.757C162.132 263.875 162.597 263.074 163.243 262.441C163.845 261.975 164.52 261.619 165.241 261.386C165.574 261.253 165.93 261.132 166.275 261.01L167.286 260.659C167.868 260.484 168.406 260.187 168.868 259.786C169.052 259.483 169.174 259.146 169.227 258.794C169.281 258.441 169.263 258.082 169.177 257.737C169.027 256.932 169.149 256.098 169.522 255.372C170.203 254.566 171.036 253.906 171.971 253.433C172.793 253.058 173.512 252.484 174.064 251.759C174.29 251.202 173.874 250.547 173.482 249.868C172.977 249.261 172.722 248.48 172.768 247.686C173.088 246.799 173.629 246.014 174.338 245.406V245.406Z" fill="#3ADEC5" stroke="#263238" stroke-miterlimit="10"/>
<path d="M169.938 245.843C170.544 245.224 171.127 244.63 171.127 244.109C171.127 243.587 170.521 243.212 169.938 242.763C169.355 242.314 168.606 241.829 168.451 241.187C168.406 240.457 168.599 239.733 168.998 239.126C169.331 238.447 169.688 237.731 169.45 237.295C169.213 236.858 168.38 236.604 167.56 236.361C166.763 236.2 166.018 235.838 165.395 235.306C165.025 234.717 164.892 234.004 165.027 233.318C165.027 232.615 165.11 231.948 164.694 231.633C163.967 231.299 163.169 231.158 162.375 231.22C161.467 231.263 160.56 231.114 159.711 230.784C159.113 230.387 158.667 229.792 158.451 229.099C158.189 228.492 157.915 227.886 157.357 227.668C156.519 227.538 155.663 227.591 154.847 227.826C153.891 228.066 152.901 228.132 151.922 228.02C151.155 227.822 150.46 227.401 149.924 226.807C149.453 226.29 148.84 225.931 148.164 225.777C147.611 225.791 147.066 225.915 146.559 226.14L145.691 226.48C145.382 226.613 145.072 226.746 144.751 226.856C144.135 227.117 143.48 227.273 142.813 227.316C141.932 227.294 141.065 227.083 140.268 226.698C139.573 226.335 138.801 226.152 138.021 226.164C137.866 226.19 137.715 226.23 137.569 226.286C136.957 226.564 136.378 226.914 135.844 227.328C135.193 227.83 134.477 228.238 133.716 228.541C133.577 228.6 133.434 228.649 133.288 228.686C132.344 228.856 131.378 228.856 130.434 228.686C129.602 228.514 128.745 228.514 127.913 228.686C127.208 229.052 126.606 229.594 126.165 230.263C125.656 230.988 124.999 231.592 124.238 232.033C124.106 232.108 123.966 232.169 123.822 232.215C123.004 232.479 122.157 232.642 121.301 232.7C120.6 232.754 119.906 232.884 119.232 233.088C119.09 233.135 118.954 233.2 118.827 233.282C118.294 233.737 117.922 234.359 117.769 235.052C117.564 235.826 117.153 236.527 116.58 237.077C116.067 237.475 115.492 237.782 114.879 237.986L113.916 238.325L113.036 238.629C112.524 238.783 112.049 239.048 111.645 239.404C111.48 239.668 111.369 239.963 111.32 240.272C111.271 240.58 111.284 240.896 111.359 241.199C111.506 241.904 111.401 242.639 111.062 243.272C110.475 243.986 109.745 244.565 108.922 244.97C108.125 245.467 107.293 245.964 107.09 246.449C106.888 246.934 107.245 247.528 107.602 248.11C108.035 248.647 108.256 249.331 108.22 250.026C107.918 250.795 107.431 251.474 106.805 252.002C106.21 252.62 105.616 253.214 105.616 253.736C105.616 254.257 106.222 254.633 106.805 255.082C107.388 255.53 108.125 256.015 108.291 256.658C108.337 257.387 108.145 258.112 107.744 258.719C107.411 259.398 107.067 260.113 107.293 260.55C107.518 260.986 108.363 261.241 109.183 261.495C109.979 261.646 110.724 262 111.348 262.526C111.711 263.123 111.843 263.836 111.716 264.527C111.716 265.23 111.645 265.897 112.037 266.212C112.784 266.55 113.602 266.692 114.416 266.624C115.324 266.587 116.231 266.739 117.079 267.073C117.683 267.464 118.129 268.061 118.34 268.758C118.602 269.352 118.875 269.97 119.434 270.177C120.276 270.309 121.135 270.255 121.955 270.019C122.907 269.781 123.893 269.711 124.868 269.813C125.631 270.021 126.323 270.441 126.866 271.025C127.331 271.55 127.947 271.911 128.626 272.056C129.179 272.052 129.726 271.932 130.232 271.704C130.517 271.607 130.802 271.486 131.088 271.365L131.98 271.001C132.619 270.743 133.292 270.584 133.977 270.528C134.861 270.547 135.729 270.762 136.522 271.159C137.218 271.518 137.99 271.697 138.77 271.68C138.92 271.655 139.068 271.615 139.21 271.559C139.83 271.283 140.413 270.929 140.946 270.504C141.606 270.016 142.321 269.609 143.075 269.291L143.515 269.158C144.451 268.988 145.409 268.988 146.345 269.158C147.184 269.337 148.05 269.337 148.89 269.158C149.587 268.797 150.181 268.258 150.614 267.594C151.127 266.868 151.788 266.264 152.552 265.824C152.684 265.756 152.819 265.695 152.957 265.642C153.78 265.38 154.63 265.213 155.49 265.145C156.195 265.1 156.893 264.974 157.571 264.769C157.713 264.722 157.848 264.656 157.975 264.575C158.503 264.117 158.871 263.495 159.021 262.805C159.231 262.033 159.642 261.333 160.211 260.78C160.737 260.373 161.328 260.061 161.959 259.859C162.256 259.737 162.565 259.64 162.874 259.531L163.754 259.228C164.267 259.073 164.741 258.809 165.146 258.452C165.311 258.189 165.421 257.893 165.468 257.584C165.515 257.275 165.499 256.96 165.419 256.658C165.277 255.947 165.387 255.208 165.728 254.572C166.325 253.868 167.052 253.291 167.869 252.875C168.665 252.39 169.498 251.893 169.7 251.408C169.902 250.923 169.545 250.329 169.201 249.759C168.754 249.224 168.528 248.533 168.57 247.831C168.849 247.058 169.32 246.373 169.938 245.843V245.843Z" fill="white"/>
<path d="M139.127 251.772C139.127 251.868 138.009 260.562 132.586 262.599C132.191 262.764 131.781 262.89 131.361 262.975C129.842 263.226 128.286 263.119 126.814 262.661C125.342 262.203 123.993 261.406 122.871 260.331C121.86 259.18 121.681 258.004 122.466 257.106C124.321 254.924 131.492 251.238 131.789 251.044H131.849C135.416 249.771 137.236 249.419 138.27 249.832C139.305 250.244 139.198 251.044 139.127 251.772ZM137.307 247.783L136.95 247.94C136.051 248.188 135.103 248.188 134.203 247.94C134.084 247.94 121.42 245.236 123.667 240.665C124.607 238.713 127.235 237.028 129.803 236.07C130.495 235.809 131.202 235.595 131.92 235.428C134.013 234.943 135.654 235.064 136.427 235.731C138.294 237.38 139.234 242.884 139.281 243.115V243.199C139.067 245.843 138.496 247.213 137.307 247.783ZM159.901 247.091C159.668 247.728 159.306 248.307 158.839 248.792C158.372 249.276 157.81 249.655 157.19 249.904C157.083 249.953 156.972 249.99 156.857 250.013C153.587 250.911 145.822 250.341 145.489 250.317H145.37C142.088 249.577 140.696 248.922 140.542 248.025C140.387 247.128 141.291 246.485 142.076 245.903C144.891 243.959 147.905 242.332 151.066 241.053C153.599 240.096 156.132 239.635 157.844 240.544C158.946 241.158 159.78 242.174 160.179 243.388C160.578 244.602 160.513 245.924 159.996 247.091H159.901Z" fill="#3ADEC5"/>
<path d="M248.375 414.689C249.339 414.81 250.338 414.931 250.754 414.58C251.17 414.228 252.145 414.168 252.704 412.919C253.085 412.082 250.968 410.615 251.42 410.021C252.029 409.474 252.798 409.146 253.608 409.087C254.814 408.817 255.941 408.265 256.902 407.475C257.116 406.953 257.27 406.869 256.902 405.947C256.533 405.026 254.286 403.862 254.428 403.11C254.688 402.356 255.225 401.734 255.927 401.376C256.569 400.903 257.187 400.479 257.175 399.885C256.964 398.978 256.525 398.143 255.903 397.46C255.234 396.654 254.732 395.717 254.428 394.708C254.352 393.883 254.567 393.057 255.035 392.38C255.452 391.801 255.627 391.077 255.522 390.367C255.042 389.51 254.389 388.767 253.608 388.185C252.729 387.477 251.977 386.62 251.384 385.651C251.024 384.804 250.909 383.87 251.051 382.959C251.177 382.167 251.06 381.354 250.718 380.631C250.319 380.136 249.831 379.725 249.279 379.419L248.375 378.873C248.042 378.679 247.698 378.485 247.377 378.279C246.717 377.888 246.12 377.398 245.605 376.824C245.023 375.997 244.618 375.056 244.416 374.06C244.246 373.171 243.866 372.339 243.31 371.635C243.179 371.509 243.036 371.4 242.882 371.307C242.209 370.937 241.494 370.652 240.753 370.459C239.845 370.219 238.97 369.865 238.149 369.404L237.721 369.101C236.901 368.365 236.216 367.486 235.699 366.506C235.268 365.62 234.656 364.838 233.903 364.214C233.088 363.835 232.193 363.668 231.299 363.729C230.302 363.773 229.308 363.595 228.386 363.208C228.229 363.135 228.078 363.05 227.934 362.953C227.125 362.387 226.383 361.728 225.722 360.989C225.193 360.377 224.594 359.832 223.938 359.365C223.796 359.264 223.64 359.186 223.474 359.134C222.701 358.961 221.894 359.055 221.179 359.401C220.357 359.767 219.45 359.889 218.563 359.753C217.852 359.559 217.177 359.248 216.565 358.831L215.602 358.189L214.71 357.594C214.216 357.236 213.652 356.988 213.057 356.867C212.708 356.902 212.37 357.01 212.064 357.183C211.757 357.356 211.488 357.591 211.273 357.873C210.757 358.509 210.037 358.938 209.24 359.086C208.372 359.158 206.124 356.661 205.09 356.273C204.055 355.885 203.639 357.558 203.068 357.716C202.497 357.873 202.807 358.564 202.557 359.304C202.385 360.077 201.94 360.758 201.308 361.22C200.607 361.559 199.025 360.444 198.026 360.322C197.027 360.201 196.611 361.074 196.183 361.426C195.755 361.777 195.826 362.638 195.886 363.499C196.025 364.324 195.904 365.173 195.541 365.924C195.101 366.506 194.352 365.488 193.448 365.669C192.544 365.851 191.64 367.221 191.414 367.731C191.188 368.24 191.557 369.21 191.914 370.155C192.337 370.99 192.542 371.921 192.508 372.859C192.249 373.617 191.712 374.243 191.01 374.605C190.368 375.054 189.761 375.49 189.761 376.084C189.984 376.984 190.417 377.816 191.022 378.509C191.706 379.307 192.213 380.246 192.508 381.262C192.575 382.084 192.365 382.905 191.914 383.589C191.701 383.871 191.549 384.193 191.465 384.538C191.381 384.882 191.368 385.24 191.426 385.59C191.901 386.451 192.549 387.199 193.329 387.785C194.215 388.478 194.975 389.323 195.576 390.282C195.925 391.128 196.04 392.054 195.909 392.962C195.774 393.753 195.886 394.567 196.23 395.29C196.629 395.785 197.117 396.196 197.669 396.502L198.573 397.036L199.524 397.605C200.2 398.002 200.81 398.505 201.332 399.097C201.94 399.919 202.366 400.867 202.581 401.873C202.748 402.762 203.128 403.595 203.687 404.298C203.816 404.416 203.955 404.521 204.103 404.613C204.782 404.989 205.505 405.274 206.255 405.462C207.163 405.706 208.038 406.064 208.859 406.529L209.287 406.82C210.1 407.559 210.78 408.437 211.297 409.415C211.728 410.304 212.345 411.086 213.105 411.706C213.915 412.087 214.807 412.253 215.697 412.191C216.698 412.149 217.695 412.327 218.622 412.713L219.062 412.955C219.871 413.526 220.613 414.189 221.274 414.931C221.813 415.545 222.415 416.098 223.07 416.58C223.212 416.67 223.364 416.744 223.522 416.799C224.296 416.962 225.102 416.864 225.817 416.52C226.637 416.16 227.539 416.042 228.421 416.18C229.156 416.369 229.853 416.689 230.478 417.126L231.394 417.732L232.286 418.326C232.784 418.687 233.351 418.935 233.951 419.054C234.298 419.018 234.634 418.91 234.939 418.737C235.244 418.564 235.51 418.329 235.723 418.047C236.241 417.407 236.966 416.977 237.768 416.835C238.807 416.88 239.827 417.14 240.765 417.599C241.559 418.029 242.446 418.25 243.345 418.241C244.175 417.913 244.862 417.294 245.284 416.495C245.557 415.719 245.01 415.053 245.7 414.701C246.576 414.464 247.497 414.46 248.375 414.689V414.689Z" fill="#3ADEC5" stroke="#263238" stroke-miterlimit="10"/>
<path d="M250.005 413.137C250.98 413.258 251.967 413.379 252.383 413.028C252.799 412.676 252.752 411.815 252.692 410.955C252.537 410.553 252.485 410.118 252.542 409.691C252.6 409.263 252.765 408.858 253.02 408.514C253.276 408.171 253.615 407.9 254.003 407.729C254.391 407.557 254.816 407.491 255.237 407.535C256.081 407.366 256.949 407.184 257.175 406.662C257.401 406.141 257.021 405.195 256.664 404.238C256.238 403.4 256.033 402.464 256.069 401.522C256.224 400.734 256.914 400.309 257.568 399.788C258.222 399.266 258.828 398.891 258.816 398.296C258.597 397.393 258.16 396.559 257.544 395.872C256.871 395.066 256.366 394.13 256.057 393.119C255.989 392.295 256.203 391.472 256.664 390.791C256.873 390.508 257.024 390.186 257.11 389.842C257.196 389.499 257.214 389.141 257.163 388.791C256.68 387.933 256.028 387.186 255.249 386.596C254.364 385.895 253.611 385.037 253.025 384.062C252.663 383.22 252.544 382.291 252.68 381.383C252.817 380.592 252.704 379.777 252.359 379.055C251.963 378.558 251.474 378.146 250.92 377.842L250.005 377.297C249.672 377.103 249.339 376.909 249.018 376.703C248.357 376.314 247.759 375.824 247.246 375.248C246.658 374.42 246.253 373.473 246.057 372.471C245.888 371.581 245.504 370.747 244.939 370.046C244.813 369.921 244.673 369.811 244.523 369.719C243.847 369.358 243.133 369.077 242.394 368.882C241.485 368.641 240.61 368.283 239.79 367.815C239.64 367.724 239.497 367.623 239.362 367.512C238.539 366.779 237.854 365.9 237.34 364.918C236.901 364.037 236.286 363.26 235.532 362.638C234.725 362.248 233.832 362.077 232.94 362.141C231.944 362.184 230.951 362.01 230.027 361.632L229.575 361.377C228.766 360.806 228.024 360.143 227.363 359.401C226.825 358.798 226.227 358.253 225.579 357.776C225.434 357.68 225.279 357.603 225.115 357.546C224.339 357.37 223.527 357.464 222.808 357.813C221.99 358.177 221.087 358.299 220.204 358.164C219.491 357.978 218.814 357.666 218.206 357.243L217.243 356.6L216.351 356.018C215.86 355.654 215.295 355.406 214.698 355.291C214.349 355.321 214.011 355.425 213.704 355.596C213.397 355.768 213.128 356.002 212.914 356.285C212.4 356.923 211.679 357.353 210.881 357.497C209.842 357.453 208.822 357.193 207.884 356.734C207.083 356.31 206.194 356.09 205.292 356.091C204.721 356.249 204.448 356.988 204.198 357.716C204.026 358.492 203.576 359.175 202.937 359.631C202.049 359.901 201.107 359.934 200.202 359.728C199.239 359.607 198.252 359.486 197.824 359.838C197.396 360.189 197.467 361.05 197.527 361.911C197.667 362.736 197.547 363.585 197.182 364.336C196.573 364.895 195.799 365.232 194.982 365.294C194.137 365.463 193.269 365.645 193.055 366.154C192.841 366.664 193.198 367.634 193.555 368.579C193.973 369.415 194.178 370.345 194.149 371.283C193.883 372.036 193.348 372.659 192.651 373.029C191.997 373.478 191.402 373.914 191.391 374.508C191.618 375.409 192.054 376.241 192.663 376.933C193.336 377.739 193.841 378.675 194.149 379.685C194.219 380.512 194.009 381.337 193.555 382.025C193.343 382.304 193.19 382.625 193.106 382.967C193.022 383.31 193.009 383.666 193.067 384.014C193.544 384.876 194.192 385.628 194.97 386.22C195.851 386.921 196.603 387.775 197.194 388.742C197.55 389.586 197.67 390.513 197.539 391.422C197.395 392.213 197.508 393.03 197.86 393.75C198.252 394.251 198.742 394.664 199.298 394.962L200.202 395.508C200.523 395.69 200.832 395.884 201.142 396.078C201.818 396.474 202.432 396.973 202.961 397.557C203.553 398.382 203.959 399.33 204.15 400.333C204.321 401.223 204.705 402.056 205.268 402.758C205.397 402.88 205.536 402.989 205.684 403.086C206.363 403.45 207.081 403.731 207.825 403.922C208.736 404.169 209.614 404.527 210.441 404.989C210.584 405.086 210.726 405.183 210.857 405.292C211.672 406.025 212.353 406.899 212.867 407.875C213.306 408.763 213.926 409.544 214.686 410.166C215.497 410.548 216.388 410.715 217.279 410.651C218.279 410.616 219.275 410.794 220.204 411.173C220.347 411.258 220.489 411.33 220.632 411.427C221.45 411.991 222.197 412.655 222.856 413.404C223.391 414.017 223.994 414.566 224.652 415.041C224.796 415.129 224.947 415.206 225.103 415.271C225.878 415.422 226.68 415.325 227.399 414.992C228.217 414.628 229.12 414.506 230.003 414.64C230.73 414.842 231.42 415.161 232.048 415.586L232.976 416.204L233.868 416.786C234.362 417.156 234.931 417.408 235.532 417.526C236.198 417.526 236.722 417.029 237.304 416.508C237.82 415.87 238.54 415.44 239.338 415.295C240.377 415.341 241.397 415.6 242.334 416.059C243.135 416.485 244.024 416.709 244.927 416.714C245.498 416.556 245.759 415.804 246.021 415.089C246.181 414.305 246.633 413.614 247.281 413.161C248.172 412.916 249.11 412.908 250.005 413.137Z" fill="#3ADEC5" stroke="#263238" stroke-miterlimit="10"/>
<path d="M246.96 409.875C247.805 409.972 248.673 410.082 249.041 409.778C249.41 409.475 249.362 408.736 249.315 407.948C249.177 407.596 249.131 407.213 249.181 406.838C249.231 406.462 249.376 406.107 249.601 405.805C249.826 405.503 250.124 405.266 250.466 405.117C250.807 404.968 251.181 404.911 251.551 404.953C252.276 404.807 253.037 404.65 253.239 404.189C253.441 403.728 253.108 402.904 252.799 402.091C252.424 401.342 252.244 400.507 252.276 399.667C252.407 398.988 253.013 398.563 253.584 398.151C254.155 397.739 254.69 397.363 254.678 396.842C254.485 396.053 254.105 395.324 253.572 394.72C252.975 394.013 252.53 393.187 252.264 392.295C252.201 391.573 252.39 390.851 252.799 390.258C253.162 389.747 253.316 389.112 253.227 388.488C252.805 387.737 252.234 387.085 251.551 386.572C250.782 385.951 250.122 385.2 249.6 384.353C249.287 383.609 249.184 382.79 249.303 381.989C249.419 381.296 249.319 380.584 249.018 379.952C248.67 379.513 248.242 379.146 247.757 378.873L246.96 378.4L246.08 377.879C245.506 377.534 244.985 377.105 244.534 376.606C244.008 375.884 243.635 375.058 243.44 374.181C243.297 373.397 242.962 372.663 242.465 372.047C242.352 371.942 242.228 371.848 242.097 371.768C241.507 371.443 240.88 371.195 240.23 371.028C239.432 370.819 238.665 370.505 237.946 370.095C237.815 370.013 237.688 369.924 237.566 369.828C236.846 369.183 236.245 368.411 235.794 367.549C235.413 366.774 234.874 366.092 234.212 365.548C233.5 365.209 232.714 365.059 231.929 365.112C231.055 365.148 230.184 364.996 229.373 364.663L228.98 364.445C228.274 363.941 227.624 363.36 227.042 362.711C226.572 362.176 226.046 361.696 225.472 361.28C225.347 361.196 225.211 361.131 225.068 361.086C224.388 360.929 223.675 361.01 223.046 361.317C222.329 361.639 221.537 361.744 220.763 361.62C220.138 361.452 219.543 361.182 219.003 360.82L218.159 360.25L217.374 359.74C216.942 359.421 216.447 359.202 215.923 359.098C215.619 359.127 215.323 359.22 215.055 359.37C214.787 359.52 214.553 359.724 214.365 359.971C213.913 360.526 213.28 360.896 212.581 361.014C211.669 360.983 210.773 360.756 209.953 360.347C209.249 359.973 208.465 359.781 207.67 359.789C207.171 359.922 206.933 360.565 206.707 361.208C206.557 361.887 206.167 362.486 205.613 362.893C204.839 363.123 204.022 363.152 203.235 362.978C202.544 362.787 201.812 362.821 201.142 363.075C200.785 363.366 200.832 364.105 200.88 364.893C201.014 365.631 200.909 366.392 200.583 367.064C200.046 367.555 199.364 367.85 198.644 367.9C197.919 368.046 197.158 368.203 196.956 368.652C196.754 369.101 197.087 369.949 197.396 370.762C197.774 371.51 197.954 372.346 197.919 373.187C197.681 373.845 197.21 374.39 196.599 374.714C196.04 375.102 195.505 375.49 195.505 376.012C195.703 376.798 196.082 377.526 196.611 378.133C197.21 378.839 197.656 379.665 197.919 380.558C197.979 381.282 197.794 382.005 197.396 382.607C197.212 382.856 197.08 383.14 197.006 383.442C196.933 383.744 196.92 384.058 196.968 384.365C197.389 385.12 197.96 385.777 198.644 386.293C199.413 386.911 200.072 387.657 200.595 388.5C200.907 389.245 201.01 390.063 200.892 390.864C200.769 391.557 200.869 392.271 201.177 392.901C201.52 393.346 201.949 393.714 202.438 393.98L203.235 394.453L204.055 394.95C204.65 395.3 205.187 395.742 205.649 396.26C206.184 396.976 206.557 397.804 206.743 398.684C206.888 399.468 207.223 400.201 207.718 400.818C207.831 400.924 207.955 401.017 208.086 401.097C208.681 401.42 209.312 401.669 209.965 401.837C210.761 402.056 211.528 402.374 212.248 402.783C212.38 402.86 212.507 402.945 212.629 403.037C213.342 403.681 213.938 404.449 214.389 405.304C214.772 406.084 215.315 406.771 215.982 407.317C216.69 407.658 217.473 407.804 218.254 407.741C219.132 407.709 220.008 407.866 220.822 408.202C220.956 408.263 221.083 408.336 221.203 408.42C221.919 408.917 222.574 409.499 223.153 410.154C223.623 410.693 224.149 411.176 224.723 411.597C224.852 411.674 224.987 411.739 225.127 411.791C225.805 411.931 226.509 411.846 227.137 411.549C227.856 411.233 228.646 411.128 229.42 411.246C230.077 411.415 230.698 411.707 231.251 412.106L232.072 412.64L232.857 413.149C233.285 413.475 233.782 413.695 234.308 413.792C234.902 413.792 235.39 413.367 235.865 412.907C236.323 412.361 236.955 411.996 237.649 411.876C238.563 411.921 239.46 412.147 240.289 412.543C240.984 412.921 241.761 413.116 242.549 413.113C243.06 412.979 243.286 412.312 243.524 411.682C243.661 411.001 244.054 410.401 244.618 410.009C245.374 409.757 246.181 409.711 246.96 409.875V409.875Z" fill="white"/>
<path d="M223.391 388.779C223.308 388.779 215.911 393.301 211 390.197C210.623 389.962 210.272 389.685 209.953 389.373C208.813 388.307 207.93 386.986 207.375 385.513C206.82 384.04 206.607 382.456 206.755 380.886C207.028 379.37 207.837 378.521 209.002 378.582C211.832 378.728 219.086 382.219 219.395 382.353H219.455C222.618 384.39 224.033 385.675 224.342 386.766C224.652 387.857 223.998 388.391 223.391 388.779ZM225.389 384.899C225.27 384.842 225.155 384.777 225.044 384.705C224.284 384.154 223.685 383.404 223.308 382.535C223.308 382.425 217.517 370.604 222.452 369.573C224.545 369.137 227.434 370.18 229.789 371.671C230.415 372.062 231.015 372.496 231.584 372.968C233.249 374.363 234.177 375.745 234.129 376.788C234.01 379.297 230.336 383.444 230.181 383.626C227.946 385.081 226.578 385.432 225.389 384.899ZM239.861 402.661C239.226 402.861 238.557 402.926 237.896 402.851C237.235 402.776 236.596 402.563 236.02 402.225L235.723 402.019C233.023 399.945 228.683 393.35 228.493 393.071L228.433 392.974C226.982 389.882 226.626 388.354 227.244 387.675C227.862 386.996 228.897 387.336 229.824 387.603C233.078 388.648 236.208 390.055 239.159 391.798C241.455 393.241 243.369 394.999 243.726 396.926C243.915 398.204 243.622 399.507 242.904 400.572C242.186 401.637 241.099 402.384 239.861 402.661V402.661Z" fill="#3ADEC5"/>
<path d="M470.572 39.4467C463.258 15.6341 450.344 -1.4615 441.734 1.29077C440.975 1.53557 440.268 1.92657 439.653 2.4426L276.226 73.9774L302.709 160.256L468.217 87.5083C476.827 84.8167 477.885 63.2714 470.572 39.4467Z" fill="#3ADEC5" stroke="#263238" stroke-miterlimit="10"/>
<path d="M302.712 160.27C311.324 157.522 312.377 135.981 305.063 112.157C297.75 88.3337 284.839 71.2487 276.228 73.997C267.616 76.7453 266.563 98.2861 273.877 122.11C281.19 145.933 294.1 163.019 302.712 160.27Z" fill="#263238" stroke="#263238" stroke-miterlimit="10"/>
<path d="M298.511 115.528C293.754 99.8511 285.204 88.6117 279.544 90.4182C279.043 90.5808 278.575 90.8356 278.164 91.1699L266.926 96.3956L268.805 102.543C268.365 108.375 269.376 116.207 271.909 124.452C274.442 132.696 277.986 139.717 281.613 144.251L284.348 153.163L296.989 147.185C302.602 145.367 303.327 131.193 298.511 115.528Z" fill="#3ADEC5" stroke="#263238" stroke-miterlimit="10"/>
<path d="M285.87 121.506C290.686 137.183 289.996 151.356 284.324 153.163C278.652 154.969 270.161 143.73 265.297 128.053C260.434 112.376 261.23 98.2022 266.926 96.3956C272.623 94.5891 281.066 105.829 285.87 121.506Z" fill="#263238" stroke="#263238" stroke-miterlimit="10"/>
<path d="M278.331 98.2385L276.523 99.1236" stroke="#263238" stroke-miterlimit="10"/>
<path d="M286.524 94.2253L279.948 97.4505" stroke="#263238" stroke-miterlimit="10"/>
<path d="M291.863 100.336L281.862 105.234" stroke="#263238" stroke-miterlimit="10"/>
<path d="M295.288 108.108L285.287 113.006" stroke="#263238" stroke-miterlimit="10"/>
<path d="M291.376 121.978L288.427 123.421" stroke="#263238" stroke-miterlimit="10"/>
<path d="M298.428 118.523L293.766 120.802" stroke="#263238" stroke-miterlimit="10"/>
<path d="M277.546 125.034C275.738 119.153 272.551 114.934 270.411 115.613C270.223 115.674 270.049 115.773 269.899 115.904L248.494 132.963L250.766 140.347L276.963 136.879C279.092 136.249 279.353 130.926 277.546 125.034Z" fill="#3ADEC5" stroke="#263238" stroke-miterlimit="10"/>
<path d="M250.932 136.225C251.562 138.274 251.467 140.117 250.73 140.347C249.993 140.577 248.887 139.135 248.257 137.086C247.626 135.037 247.721 133.194 248.459 132.963C249.196 132.733 250.278 134.188 250.932 136.225Z" fill="#3ADEC5" stroke="#263238" stroke-miterlimit="10"/>
<path d="M158.902 321.33C158.902 321.33 158.986 316.48 163.659 317.486C168.333 318.493 170.794 327.635 173.244 333.345C175.693 339.056 184.993 348.368 193.579 345.894C202.164 343.421 201.487 332.933 208.36 331.345C215.233 329.757 218.563 335.443 221.441 341.166C224.319 346.888 225.532 355.121 232.441 354.381C239.35 353.642 241.502 349.289 241.502 349.289C241.502 349.289 230.621 353.533 227.957 340.341C224.497 323.282 211.63 319.257 207.266 324.858C202.902 330.46 202.355 336.001 197.17 338.971C191.985 341.942 185.183 340.075 181.413 334.788C177.644 329.502 171.543 311.473 167.56 309.048C163.576 306.623 162.803 308.987 162.803 308.987C162.803 308.987 155.145 313.413 158.902 321.33Z" fill="#263238" stroke="#263238" stroke-linecap="round" stroke-linejoin="round"/>
<path d="M235.842 355.8C234.142 355.794 232.467 355.378 230.954 354.588C227.565 352.793 226.352 348.525 224.806 343.154C222.333 334.485 219.931 327.817 213.461 327.307C211.083 327.113 210.001 328.52 207.516 333.37C205.137 337.977 201.831 344.282 194.042 344.415C180.438 344.694 175.943 333.406 172.637 325.222C170.402 319.657 168.475 314.855 164.86 313.813C162.482 313.134 161.887 312.952 159.771 319.742C158.451 323.973 156.952 328.762 152.743 331.357C148.878 333.782 144.133 333.285 140.066 330.144C134.56 325.925 129.994 316.201 132.931 304.841C133.067 304.323 133.301 303.838 133.621 303.413C133.941 302.988 134.34 302.631 134.795 302.363C135.249 302.095 135.752 301.921 136.273 301.851C136.794 301.781 137.323 301.816 137.83 301.955C138.338 302.093 138.814 302.333 139.231 302.659C139.648 302.985 139.997 303.391 140.26 303.855C140.523 304.319 140.694 304.831 140.762 305.362C140.831 305.893 140.796 306.433 140.661 306.95C138.722 314.31 141.303 320.918 144.835 323.621C145.833 324.397 147.296 325.137 148.58 324.349C150.21 323.343 151.185 320.239 152.148 317.244C153.718 312.249 156.619 302.937 167.036 305.944C174.397 308.066 177.394 315.522 180.046 322.106C183.613 330.945 186.17 336.377 193.912 336.231C196.682 336.231 198.026 334.158 200.44 329.514C202.854 324.87 206.184 318.469 214.127 319.111C226.626 320.093 230.181 332.557 232.536 340.802C233.178 343.069 234.153 346.464 234.914 347.373C235.429 347.593 235.99 347.674 236.544 347.608C237.098 347.542 237.626 347.332 238.077 346.998C239.266 346.173 243.048 342.439 241.645 328.908C239.528 307.605 246.497 147.573 246.556 143.681C246.556 142.554 247.067 138.274 248.934 137.51L249.719 137.243C250.813 137.243 250.659 137.461 250.647 138.589C250.647 139.535 247.543 307.253 249.612 328.083C251.206 344.136 246.639 350.902 242.477 353.751C240.526 355.116 238.208 355.832 235.842 355.8V355.8Z" fill="white" stroke="#263238" stroke-linecap="round" stroke-linejoin="round"/>
<path d="M234.676 352.963C234.676 352.963 239.076 355.388 244.19 349.132C247.757 344.621 247.757 338.547 247.757 334.582" stroke="#263238" stroke-linecap="round" stroke-linejoin="round"/>
<path d="M247.805 330.836L247.388 323.925" stroke="#263238" stroke-linecap="round" stroke-linejoin="round"/>
<path d="M143.895 329.563C144.698 329.861 145.526 330.084 146.369 330.229C152.695 331.357 155.882 325.38 155.882 325.38" stroke="#263238" stroke-linecap="round" stroke-linejoin="round"/>
<path d="M137.307 324.24C137.899 325.198 138.619 326.068 139.448 326.822" stroke="#263238" stroke-linecap="round" stroke-linejoin="round"/>
<path d="M190.641 341.699C191.248 341.808 191.902 341.905 192.627 341.966C197.717 342.439 200.19 340.196 200.19 340.196" stroke="#263238" stroke-linecap="round" stroke-linejoin="round"/>
<path d="M185.338 339.65C185.873 340.052 186.456 340.382 187.074 340.632" stroke="#263238" stroke-linecap="round" stroke-linejoin="round"/>
<path d="M430.199 208.596C430.199 208.596 438.072 206.171 440.771 205.771C443.47 205.371 449.844 205.662 450.617 203.189C451.39 200.715 439.915 196.508 437.251 196.472C436.258 196.389 435.265 196.627 434.411 197.151C433.558 197.676 432.887 198.46 432.494 199.394C431.745 200.873 427.94 208.802 427.94 208.802L430.199 208.596Z" fill="#3ADEC5" stroke="#263238" stroke-miterlimit="10"/>
<path d="M494.854 271.098C493.903 269.582 481.952 266.394 480.739 265.872C479.526 265.351 469.822 258.695 465.47 255.385C461.118 252.075 445.385 239.562 440.069 234.773C434.754 229.984 423.802 225.522 423.802 225.522C423.802 225.522 439.463 195.55 444.136 179.449C448.81 163.347 448.275 150.035 447.371 145.282C447.371 145.282 429.533 143.233 418.308 139.559C411.533 137.32 405.26 133.735 399.852 129.011L396.13 132.199C396.13 132.199 387.924 139.801 374.606 161.298C366.038 175.087 360.447 190.578 358.207 206.741C357.91 209.736 365.901 215.362 370.099 215.931C374.297 216.501 391.218 212.294 391.968 212.039C392.717 211.785 399.566 211.166 399.566 211.166C399.566 211.166 395.547 233.33 397.937 237.113C400.327 240.896 406.416 242.751 406.416 242.751C406.416 242.751 465.244 271.45 468.645 273.753C472.046 276.057 478.289 283.453 478.289 283.453C478.289 283.453 483.474 296.269 485.424 301.046C487.375 305.823 487.719 310.333 490.181 309.618C492.643 308.902 495.722 299.918 496.127 292.486C496.531 285.053 495.818 272.674 494.854 271.098ZM402.194 197.89L388.245 196.678L405.964 175.981L408.342 179.521L402.194 197.89Z" fill="#263238" stroke="#263238" stroke-linecap="round" stroke-linejoin="round"/>
<path d="M404.323 174.756L396.772 166.075" stroke="#6E6E6E" stroke-linecap="round" stroke-linejoin="round"/>
<path d="M402.194 197.89L400.066 208.596" stroke="#6E6E6E" stroke-linecap="round" stroke-linejoin="round"/>
<path d="M388.222 196.666C388.222 196.666 381.479 205.298 378.708 207.25" stroke="#6E6E6E" stroke-linecap="round" stroke-linejoin="round"/>
<path d="M494.854 271.098C493.903 269.582 481.952 266.394 480.739 265.872C479.788 265.472 473.759 261.386 469.061 258.016C468.967 262.881 467.122 267.542 463.877 271.11C466.409 272.42 468.11 273.329 468.633 273.668C472.022 275.972 478.277 283.368 478.277 283.368C478.277 283.368 483.462 296.184 485.412 300.961C487.363 305.738 487.708 310.248 490.169 309.533C492.631 308.817 495.711 299.833 496.115 292.401C496.519 284.968 495.818 272.674 494.854 271.098Z" fill="white" stroke="#263238" stroke-linecap="round" stroke-linejoin="round"/>
<path d="M482.535 266.454C483.486 269.146 484.818 273.547 484.259 275.172C483.486 277.403 481.274 278.373 479.038 280.337C478.316 280.913 477.839 281.751 477.707 282.677L478.254 283.32C478.254 283.32 483.438 296.135 485.389 300.912C487.339 305.689 487.684 310.2 490.145 309.484C492.607 308.769 495.687 299.785 496.091 292.352C496.495 284.92 495.913 272.614 494.902 271.098C494.058 269.886 486.233 267.582 482.535 266.454Z" fill="#3ADEC5" stroke="#263238" stroke-miterlimit="10"/>
<path d="M419.628 24.8366C419.628 24.8366 406.618 12.991 403.562 11.827C400.506 10.663 392.859 14.1428 385.284 17.3922C377.709 20.6415 351.988 37.7856 351.988 37.7856C351.988 37.7856 339.941 42.9507 337.111 43.8479C335.584 44.4065 334.209 45.3281 333.101 46.5362C331.992 47.7444 331.182 49.2043 330.737 50.7953C330.107 53.7294 328.585 54.0204 331.07 53.8628C333.556 53.7051 337.456 50.4436 338.205 50.2981C338.954 50.1527 348.456 49.4252 348.456 49.4252C348.456 49.4252 344.948 53.4869 344.758 54.9661C344.567 56.4453 347.6 55.8633 350.216 52.9413C352.832 50.0193 355.163 49.0857 356.4 47.2428C357.426 45.5027 358.325 43.6871 359.087 41.811C359.087 41.811 384.167 33.3238 385.998 32.6327C387.829 31.9416 397.39 28.6437 397.39 28.6437C397.39 28.6437 404.442 39.5558 408.509 46.1516C412.576 52.7473 412.98 57.4637 412.98 57.4637C412.98 57.4637 407.118 71.6131 405.001 81.5673C402.884 91.5216 404.525 111.527 404.466 115.771C404.406 120.014 396.403 129.629 396.142 132.127C395.88 134.624 400.423 140.189 407.213 144.542C414.003 148.895 425.704 152.338 431.591 152.435C437.477 152.532 447.787 150.204 448.822 146.979C449.856 143.754 450.082 129.011 450.142 125.264C450.201 121.518 449.369 112.764 450.689 106.798C452.009 100.833 454.625 90.1272 450.843 81.0702C447.062 72.0132 443.304 62.2166 443.304 62.2166C443.304 62.2166 422.684 33.9058 422.458 33.1177C422.232 32.3296 419.628 24.8366 419.628 24.8366Z" fill="white" stroke="#263238" stroke-linecap="round" stroke-linejoin="round"/>
<path d="M330.939 51.5712C330.939 51.5712 334.899 47.2428 335.779 46.588C336.659 45.9333 342.498 44.5026 342.498 44.5026" stroke="#263238" stroke-linecap="round" stroke-linejoin="round"/>
<path d="M450.831 81.1067C447.062 72.0497 443.292 62.2531 443.292 62.2531C443.292 62.2531 422.672 33.9423 422.446 33.1542C422.22 32.3661 419.628 24.8731 419.628 24.8731C419.628 24.8731 406.618 13.0275 403.562 11.8635C400.506 10.6995 392.859 14.1793 385.284 17.4287C381.265 19.1503 372.204 24.764 364.486 29.6623L369.421 38.3435C376.556 35.9186 384.975 33.0693 386.01 32.645C387.841 31.8811 397.402 28.656 397.402 28.656C397.402 28.656 404.454 39.5681 408.521 46.1638C412.588 52.7596 412.992 57.476 412.992 57.476C412.992 57.476 407.129 71.6253 405.013 81.5796C402.896 91.5338 404.537 111.539 404.478 115.783C404.418 120.026 396.415 129.641 396.153 132.139C395.892 134.637 400.434 140.202 407.225 144.554C414.015 148.907 425.716 152.35 431.603 152.447C437.489 152.544 447.799 150.217 448.834 146.991C449.868 143.766 450.094 129.023 450.154 125.276C450.213 121.53 449.381 112.776 450.701 106.811C452.021 100.845 454.613 90.1031 450.831 81.1067Z" fill="#8F8F8F" stroke="#263238" stroke-linecap="round" stroke-linejoin="round"/>
<path d="M408.271 106.107C408.271 106.107 415.917 120.487 420.412 126.004Z" fill="white"/>
<path d="M408.271 106.107C408.271 106.107 415.917 120.487 420.412 126.004" stroke="#263238" stroke-linecap="round" stroke-linejoin="round"/>
<path d="M420.329 130.405C420.9 130.975 421.518 131.508 422.054 131.993Z" fill="white"/>
<path d="M420.329 130.405C420.9 130.975 421.518 131.508 422.054 131.993" stroke="#263238" stroke-linecap="round" stroke-linejoin="round"/>
<path d="M413.123 120.705C414.811 123.564 416.737 126.269 418.878 128.792Z" fill="white"/>
<path d="M413.123 120.705C414.811 123.564 416.737 126.269 418.878 128.792" stroke="#263238" stroke-linecap="round" stroke-linejoin="round"/>
<path d="M416.524 51.256C416.524 51.256 417.594 45.0361 415.691 41.5564C413.789 38.0766 412.231 28.0133 415.691 23.0665C419.152 18.1196 428.487 19.7807 428.487 19.7807C428.487 19.7807 432.518 12.3605 440.605 12.506C448.691 12.6515 453.459 20.7022 453.459 20.7022C453.459 20.7022 464.935 7.36519 480.965 16.1676C496.995 24.97 494.177 48.3582 494.177 48.3582C494.177 48.3582 507.139 55.0025 505.949 66.7148C504.76 78.4271 500.967 87.3265 486.506 87.6296C472.046 87.9327 475.412 76.2568 469.394 68.8608C463.377 61.4649 455.338 59.3916 451.117 62.7985C448.482 65.0175 446.352 67.7933 444.874 70.9341C444.874 70.9341 446.063 58.4701 438.262 55.0873C430.461 51.7046 422.803 54.081 422.089 55.0873C421.192 56.0089 420.195 56.8225 419.116 57.5123L416.524 51.256Z" fill="#263238" stroke="#263238" stroke-linecap="round" stroke-linejoin="round"/>
<path d="M432.982 44.4541C434.005 45.9899 434.668 47.7445 434.92 49.5828" stroke="#787878" stroke-linecap="round" stroke-linejoin="round"/>
<path d="M428.534 19.7322C426.193 23.4319 425.01 27.7708 425.145 32.172C425.395 36.5974 428.808 39.18 431.555 42.5142" stroke="#787878" stroke-linecap="round" stroke-linejoin="round"/>
<path d="M477.148 54.1659C477.409 54.469 477.683 54.7478 477.944 55.0146C482.772 59.8644 491.846 58.9914 493.404 52.0198" stroke="#787878" stroke-linecap="round" stroke-linejoin="round"/>
<path d="M440.367 45.9454C440.367 45.9454 444.886 38.7798 456.646 39.2163C465.981 39.5679 470.916 46.3092 474.924 51.4863" stroke="#787878" stroke-linecap="round" stroke-linejoin="round"/>
<path d="M501.716 62.9198C501.43 61.9856 500.983 61.111 500.396 60.3372" stroke="#787878" stroke-linecap="round" stroke-linejoin="round"/>
<path d="M452.532 51.0984C452.532 51.0984 463.413 45.0361 471.785 57.1606C480.156 69.2852 476.125 77.7723 490.062 78.9848C499.005 79.7729 502.203 73.7955 502.406 68.2061" stroke="#787878" stroke-linecap="round" stroke-linejoin="round"/>
<path d="M441.413 33.2026C441.088 32.9023 440.807 32.5551 440.581 32.172C438.678 28.8983 439.285 21.66 445.337 22.7633" stroke="#787878" stroke-linecap="round" stroke-linejoin="round"/>
<path d="M453.971 22.1571C453.971 22.1571 456.349 27.6859 452.591 31.8567C451.642 32.9205 450.457 33.7374 449.135 34.2394C447.813 34.7414 446.393 34.9138 444.993 34.7424" stroke="#787878" stroke-linecap="round" stroke-linejoin="round"/>
<path d="M419.14 73.5287C419.14 73.5287 416.5 85.4714 421.09 89.7999C425.68 94.1283 432.863 88.745 436.918 80.1002L419.14 73.5287Z" fill="white" stroke="#263238" stroke-linecap="round" stroke-linejoin="round"/>
<path d="M447.597 66.0358C447.597 66.0358 450.76 61.3679 452.282 62.3984C453.804 63.429 451.188 67.1028 449.083 69.4307C446.978 71.7586 445.968 71.7343 445.968 71.7343L447.597 66.0358Z" fill="white" stroke="#263238" stroke-linecap="round" stroke-linejoin="round"/>
<path d="M446.384 61.5497L448.572 53.2202C448.643 48.7583 444.089 47.6914 440.723 48.3703C438.753 48.795 436.843 49.4713 435.039 50.383C435.039 50.383 430.948 45.6787 427.405 45.0119C423.326 44.2359 420.139 45.8848 420.091 48.5037C419.947 50.4841 419.481 52.4262 418.712 54.2507L417.761 49.7768C417.761 49.7768 417.011 64.4596 417.463 68.4001C417.915 72.3405 420.127 86.2595 428.76 86.1504C435.955 86.0655 444.909 73.3105 446.241 70.7037C447.014 69.1882 447.644 65.0052 448.061 60.895L446.384 61.5497Z" fill="white" stroke="#263238" stroke-linecap="round" stroke-linejoin="round"/>
<path d="M417.713 52.6867C417.713 52.6867 416.797 45.3271 414.942 49.2312C413.087 53.1353 417.321 59.5007 417.321 59.5007L417.713 52.6867Z" fill="white" stroke="#263238" stroke-linecap="round" stroke-linejoin="round"/>
<path d="M426.905 73.2984C426.905 73.2984 427.381 75.4081 432.28 74.9595" stroke="#263238" stroke-linecap="round" stroke-linejoin="round"/>
<path d="M424.801 76.1476C425.665 77.3371 426.94 78.1476 428.369 78.4154C429.797 78.6832 431.271 78.3884 432.494 77.5905" stroke="#263238" stroke-linecap="round" stroke-linejoin="round"/>
<path d="M421.685 61.9377C422.335 63.1649 423.356 64.1454 424.597 64.7331C425.837 65.3207 427.231 65.4842 428.57 65.1992" stroke="#263238" stroke-linecap="round" stroke-linejoin="round"/>
<path d="M435.515 67.5392C436.371 68.6449 437.559 69.4342 438.897 69.7867C440.235 70.1392 441.649 70.0354 442.923 69.4913" stroke="#263238" stroke-linecap="round" stroke-linejoin="round"/>
<path d="M430.461 60.7859C430.461 60.7859 428.32 56.5059 422.601 57.4759" stroke="#263238" stroke-linecap="round" stroke-linejoin="round"/>
<path d="M436.145 62.1923C436.145 62.1923 441.615 61.1011 444.529 65.6357" stroke="#263238" stroke-linecap="round" stroke-linejoin="round"/>
<path d="M434.207 109.999L425.478 135.327C425.478 135.327 388.067 130.72 385.629 130.175C383.191 129.629 371.942 127.75 369.504 127.41C367.066 127.071 362.88 127.556 361.644 128.283C360.407 129.011 355.96 131.92 354.509 132.163C353.058 132.405 350.097 132.587 351.048 133.86C352 135.133 355.448 134.927 355.448 134.927C354.496 135.807 353.271 136.318 351.988 136.37C350.037 136.37 343.878 138.48 346.042 138.795C348.206 139.11 354.366 139.923 357.529 140.226C360.692 140.529 372.81 134.733 372.81 134.733C372.81 134.733 391.837 141.547 403.015 144.979C414.193 148.41 431.555 152.435 434.504 152.484C437.453 152.532 448.929 123.506 451.224 117.323C453.519 111.139 456.682 97.9233 455.517 94.1647C454.351 90.4061 450.058 87.278 450.058 87.278" fill="#8F8F8F"/>
<path d="M434.207 109.999L425.478 135.327C425.478 135.327 388.067 130.72 385.629 130.175C383.191 129.629 371.942 127.75 369.504 127.41C367.066 127.071 362.88 127.556 361.644 128.283C360.407 129.011 355.96 131.92 354.509 132.163C353.058 132.405 350.097 132.587 351.048 133.86C352 135.133 355.448 134.927 355.448 134.927C354.496 135.807 353.271 136.318 351.988 136.37C350.037 136.37 343.878 138.48 346.042 138.795C348.206 139.11 354.366 139.923 357.529 140.226C360.692 140.529 372.81 134.733 372.81 134.733C372.81 134.733 391.837 141.547 403.015 144.979C414.193 148.41 431.555 152.435 434.504 152.484C437.453 152.532 448.929 123.506 451.224 117.323C453.519 111.139 456.682 97.9233 455.517 94.1647C454.351 90.4061 450.058 87.278 450.058 87.278" stroke="#263238" stroke-linecap="round" stroke-linejoin="round"/>
<path d="M395.737 142.626L398.746 131.969C392.063 131.12 386.521 130.381 385.665 130.175C383.227 129.641 371.978 127.75 369.54 127.41C367.102 127.071 362.916 127.556 361.679 128.283C360.443 129.011 355.995 131.921 354.544 132.163C353.094 132.405 350.133 132.587 351.084 133.86C352.035 135.134 355.484 134.927 355.484 134.927C354.532 135.807 353.307 136.318 352.023 136.37C350.073 136.37 343.913 138.48 346.078 138.795C348.242 139.11 354.402 139.923 357.565 140.226C360.728 140.529 372.846 134.733 372.846 134.733C372.846 134.733 385.094 139.11 395.737 142.626Z" fill="white" stroke="#263238" stroke-linecap="round" stroke-linejoin="round"/>
<path d="M355.424 134.927C355.424 134.927 356.875 135.703 360.098 133.715Z" fill="white"/>
<path d="M355.424 134.927C355.424 134.927 356.875 135.703 360.098 133.715" stroke="#263238" stroke-linecap="round" stroke-linejoin="round"/>
</svg>
